<?xml version="1.0" encoding="utf-8"?>
        <!-- Generator: Adobe Illustrator 24.3.0, SVG Export Plug-In . SVG Version: 6.00 Build 0)  -->
        <svg version="1.1" xmlns="http://www.w3.org/2000/svg" xmlns:xlink="http://www.w3.org/1999/xlink" x="0px" y="0px"
             viewBox="0 0 432.8 432.7" enable-background="new 0 0 432.8 432.7" xml:space="preserve">
        <g id="Camada_1">
            <g id="Camada_2_1_">
                <g>
                    <g id="_x3C_q5_x3E_">
                        <g>
                            <g>
                                <path id="path5_1" d="M11.7,148.9C41.2,58.9,121.2,0.7,215.9,0.5v214.7L11.7,148.9z"/>
                                <path id="path5_2" d="M215.4,1v213.5l-203.1-66C41.8,59.2,121.3,1.4,215.4,1 M216.4,0C121,0,40.5,58.5,11.1,149.2
                                    l205.3,66.7V0L216.4,0z"/>
                            </g>
                        </g>
                        <g>
                            <g>
                                <g>
                                    <path d="M111.8,99.3v0.5l-0.1-0.2c0,0,0-0.1-0.1-0.1L111.8,99.3 M109.7,98.2c-0.6,0-1.2,0.3-1.6,0.9s-0.6,1.4-0.6,2.2
                                        c0,0.8,0.2,1.5,0.6,2.1s0.9,0.9,1.5,0.9c0.2,0,0.4-0.1,0.6-0.2s0.4-0.3,0.6-0.5v3.3h2v-8.7h-1.3l-0.5,0.5
                                        c-0.2-0.2-0.3-0.4-0.5-0.5C110.2,98.2,110,98.2,109.7,98.2L109.7,98.2z M110.2,102.6c-0.2,0-0.4-0.1-0.5-0.4s-0.2-0.6-0.2-1
                                        s0.1-0.8,0.2-1c0.1-0.3,0.3-0.4,0.5-0.4c0.1,0,0.2,0,0.3,0.1c0.1,0.1,0.2,0.1,0.2,0.2v1.5c0,0.3-0.1,0.5-0.2,0.7
                                        S110.4,102.6,110.2,102.6L110.2,102.6z"/>
                                    <path d="M117.9,102.1v1.1l-0.1-0.4C117.8,102.5,117.9,102.3,117.9,102.1 M115,102.4c0,0.2,0.1,0.4,0.2,0.5
                                        c0.1,0.2,0.2,0.3,0.3,0.4c-0.1,0-0.2-0.1-0.3-0.2C115.1,103,115,102.7,115,102.4 M118.9,98.3h-2v3.7c0,0.2,0,0.4-0.1,0.5
                                        s-0.2,0.2-0.4,0.2c-0.1,0-0.2-0.1-0.3-0.2c-0.1-0.1-0.1-0.3-0.1-0.5v-3.7h-2v4c0,0.6,0.2,1,0.5,1.4s0.7,0.6,1.2,0.6
                                        c0.3,0,0.5-0.1,0.7-0.2s0.4-0.3,0.6-0.5l0.2,0.6h1.7L118.9,98.3L118.9,98.3z"/>
                                    <path d="M120.9,101.5l0.1,0.3c0.1,0.4,0.3,0.8,0.5,1.1l0,0C121,102.5,120.9,102,120.9,101.5L120.9,101.5 M122.6,98.2
                                        c-0.8,0-1.5,0.3-2,0.9s-0.8,1.3-0.8,2.2c0,0.9,0.3,1.6,0.8,2.2s1.2,0.9,2.1,0.9c0.7,0,1.4-0.2,2.1-0.6V102
                                        c-0.4,0.3-0.7,0.5-0.9,0.6c-0.2,0.1-0.5,0.2-0.7,0.2c-0.3,0-0.6-0.1-0.9-0.3c-0.2-0.2-0.4-0.5-0.5-0.9h3.2v-0.5
                                        c0-0.9-0.2-1.6-0.7-2.1S123.4,98.2,122.6,98.2L122.6,98.2z M121.8,100.5c0-0.4,0.1-0.7,0.2-0.9c0.1-0.2,0.3-0.3,0.6-0.3
                                        c0.2,0,0.4,0.1,0.5,0.3c0.1,0.2,0.2,0.4,0.2,0.7v0.2L121.8,100.5L121.8,100.5z"/>
                                    <path d="M127.1,99.5c-0.1,0.2-0.1,0.4-0.1,0.6c0,0.1,0,0.2,0,0.3l0,0c-0.1-0.1-0.1-0.3-0.1-0.4
                                        C126.8,99.8,126.9,99.6,127.1,99.5 M129.1,102c0.1,0.2,0.1,0.3,0.1,0.4c0,0.2-0.1,0.4-0.2,0.6c0.1-0.2,0.1-0.4,0.1-0.6
                                        S129.1,102.1,129.1,102 M128.2,98.2c-0.6,0-1.2,0.2-1.7,0.5s-0.7,0.8-0.7,1.3c0,0.3,0.1,0.6,0.3,0.9c0.2,0.3,0.6,0.6,1.3,0.8
                                        c0.3,0.1,0.5,0.2,0.6,0.3c0.1,0.1,0.2,0.2,0.2,0.3c0,0.2-0.1,0.3-0.2,0.4c-0.1,0.1-0.3,0.1-0.5,0.1c-0.5,0-1-0.3-1.6-0.8v1.8
                                        c0.7,0.3,1.3,0.5,1.9,0.5c0.7,0,1.3-0.2,1.8-0.6s0.7-0.9,0.7-1.4c0-0.8-0.6-1.4-1.7-1.8c-0.4-0.1-0.6-0.3-0.6-0.5
                                        c0-0.1,0-0.2,0.1-0.3s0.2-0.1,0.4-0.1c0.4,0,0.9,0.2,1.3,0.6v-1.8C129.3,98.3,128.7,98.2,128.2,98.2L128.2,98.2z"/>
                                    <path d="M132.5,102.3c0,0.5,0.2,0.8,0.4,1.1c-0.2,0-0.3-0.1-0.3-0.1c-0.1-0.1-0.1-0.3-0.1-0.7V102.3 M133.4,96.5h-1.6
                                        l-0.2,1.8h-0.8v1.4h0.7v2.8c0,0.6,0.1,1.1,0.4,1.4s0.7,0.4,1.3,0.4c0.4,0,0.7-0.1,1.1-0.2v-1.6c-0.2,0.1-0.3,0.2-0.4,0.2
                                        c-0.3,0-0.4-0.2-0.4-0.6v-2.4h0.9v-1.4h-1V96.5L133.4,96.5z"/>
                                    <path d="M137.5,98.2c-0.6,0-1.2,0.2-1.9,0.5v1.6c0.5-0.4,0.9-0.6,1.4-0.6c0.3,0,0.6,0.1,0.7,0.2c0.2,0.1,0.3,0.3,0.3,0.5
                                        c-2,0.3-3.1,1-3.1,2.2c0,0.5,0.2,1,0.5,1.3c0.4,0.4,0.8,0.5,1.2,0.5c0.2,0,0.5-0.1,0.7-0.2s0.4-0.3,0.6-0.5
                                        c0,0.2,0.1,0.4,0.2,0.6h2c-0.2-0.6-0.4-1.1-0.4-1.7v-2c0-0.5-0.1-1-0.3-1.3c-0.2-0.4-0.5-0.6-0.8-0.8S138,98.2,137.5,98.2
                                        L137.5,98.2z M137.5,102.9c-0.2,0-0.3-0.1-0.4-0.2s-0.2-0.3-0.2-0.5c0-0.5,0.4-0.9,1.2-0.9v0.8c0,0.3-0.1,0.5-0.2,0.6
                                        C137.8,102.9,137.7,102.9,137.5,102.9L137.5,102.9z"/>
                                    <path d="M145.2,100.4c0.1,0.2,0.1,0.5,0.1,0.8s0,0.5-0.1,0.7c0-0.2,0-0.4,0-0.7C145.2,101,145.2,100.7,145.2,100.4
                                         M141.8,100.8c0,0.1,0,0.3,0,0.4c0,0.2,0,0.4,0,0.6c0-0.2,0-0.4,0-0.6C141.8,101.1,141.8,101,141.8,100.8 M143.5,98.2
                                        c-0.8,0-1.5,0.3-2,0.9s-0.8,1.3-0.8,2.3c0,0.9,0.2,1.6,0.7,2.2s1.1,0.9,2,0.9s1.5-0.3,2-0.9s0.8-1.3,0.8-2.2
                                        c0-1-0.3-1.7-0.8-2.3C145,98.4,144.3,98.2,143.5,98.2L143.5,98.2z M143.5,102.8c-0.2,0-0.4-0.1-0.5-0.4s-0.2-0.6-0.2-1.2
                                        c0-0.5,0.1-0.9,0.2-1.2c0.1-0.3,0.3-0.4,0.6-0.4s0.4,0.1,0.5,0.4s0.2,0.7,0.2,1.2s-0.1,0.9-0.2,1.2S143.8,102.8,143.5,102.8
                                        L143.5,102.8z"/>
                                    <path d="M154.3,99.9C154.3,99.9,154.4,99.9,154.3,99.9c0.3,0.3,0.4,0.7,0.4,1.3c0,0.3,0,0.6-0.1,0.8c0.1-0.2,0.1-0.5,0.1-0.8
                                        C154.7,100.8,154.6,100.3,154.3,99.9L154.3,99.9 M155.2,95.9h-4.3v4.7h1.7c0.1-0.3,0.3-0.4,0.5-0.4s0.3,0.1,0.5,0.3
                                        c0.1,0.2,0.2,0.4,0.2,0.7c0,0.4-0.1,0.8-0.3,1.1c-0.2,0.3-0.5,0.4-0.9,0.4c-0.5,0-1-0.2-1.6-0.7v1.9c0.7,0.3,1.3,0.5,1.9,0.5
                                        c0.9,0,1.6-0.3,2.1-0.9s0.8-1.4,0.8-2.3c0-0.8-0.2-1.5-0.6-1.9s-0.8-0.6-1.3-0.6c-0.3,0-0.7,0.1-1,0.4v-1.5h2.4v-1.7H155.2z"
                                        />
                                </g>
                            </g>
                        </g>
                    </g>
                    <g id="_x3C_q4_x3E_">
                        <g>
                            <g>
                                <path id="path4_1" d="M89.4,389.9C12.9,334.1-17.7,240,11.4,149.8l204.2,66.4L89.4,389.9z"/>
                                <path id="path4_2" d="M11.7,150.4l203.1,66L89.2,389.2C13.4,333.5-17,240,11.7,150.4 M11,149.2
                                    c-29.5,90.7,1.3,185.3,78.4,241.4l126.9-174.7L11,149.2L11,149.2z"/>
                            </g>
                        </g>
                        <g>
                            <g>
                                <g>
                                    <path d="M59.5,260.3v0.5l-0.1-0.2c0,0,0-0.1-0.1-0.1L59.5,260.3 M57.4,259.1c-0.6,0-1.2,0.3-1.6,1c-0.4,0.6-0.6,1.4-0.6,2.2
                                        c0,0.8,0.2,1.5,0.6,2.1c0.4,0.6,0.9,0.9,1.5,0.9c0.2,0,0.4-0.1,0.6-0.2c0.2-0.1,0.4-0.3,0.6-0.5v3.3h2v-8.7h-1.3l-0.5,0.5
                                        c-0.2-0.2-0.3-0.4-0.5-0.5S57.7,259.1,57.4,259.1L57.4,259.1z M58,263.6c-0.2,0-0.4-0.1-0.5-0.4s-0.2-0.6-0.2-1
                                        s0.1-0.8,0.2-1c0.1-0.3,0.3-0.4,0.5-0.4c0.1,0,0.2,0,0.3,0.1s0.2,0.1,0.2,0.2v1.5c0,0.3-0.1,0.5-0.2,0.7S58.1,263.6,58,263.6
                                        L58,263.6z"/>
                                    <path d="M65.6,263v1.1l-0.1-0.4C65.5,263.4,65.6,263.2,65.6,263 M62.7,263.4c0,0.2,0.1,0.4,0.2,0.5c0.1,0.2,0.2,0.3,0.3,0.4
                                        c-0.1,0-0.2-0.1-0.3-0.2C62.8,263.9,62.8,263.7,62.7,263.4 M66.6,259.2h-2v3.7c0,0.2,0,0.4-0.1,0.5s-0.2,0.2-0.4,0.2
                                        c-0.1,0-0.2-0.1-0.3-0.2c-0.1-0.1-0.1-0.3-0.1-0.5v-3.7h-2v4c0,0.6,0.2,1,0.5,1.4s0.7,0.6,1.2,0.6c0.3,0,0.5-0.1,0.7-0.2
                                        s0.4-0.3,0.6-0.5l0.2,0.6h1.7L66.6,259.2L66.6,259.2z"/>
                                    <path d="M68.6,262.4l0.1,0.3c0.1,0.4,0.3,0.8,0.5,1.1l0,0C68.8,263.4,68.6,262.9,68.6,262.4L68.6,262.4 M70.3,259.1
                                        c-0.8,0-1.5,0.3-2,0.9s-0.8,1.3-0.8,2.2c0,0.9,0.3,1.6,0.8,2.2s1.2,0.9,2.1,0.9c0.7,0,1.4-0.2,2.1-0.6v-1.8
                                        c-0.4,0.3-0.7,0.5-0.9,0.6c-0.2,0.1-0.5,0.2-0.7,0.2c-0.3,0-0.6-0.1-0.9-0.3c-0.2-0.2-0.4-0.5-0.5-0.9h3.2V262
                                        c0-0.9-0.2-1.6-0.7-2.1C71.7,259.4,71.1,259.1,70.3,259.1L70.3,259.1z M69.5,261.4c0-0.4,0.1-0.7,0.2-0.9
                                        c0.1-0.2,0.3-0.3,0.6-0.3c0.2,0,0.4,0.1,0.5,0.3c0.1,0.2,0.2,0.4,0.2,0.7v0.2L69.5,261.4L69.5,261.4z"/>
                                    <path d="M74.8,260.4c-0.1,0.2-0.1,0.4-0.1,0.6c0,0.1,0,0.2,0,0.3l0,0c-0.1-0.1-0.1-0.3-0.1-0.4
                                        C74.6,260.7,74.6,260.6,74.8,260.4 M76.8,262.9c0.1,0.2,0.1,0.3,0.1,0.4c0,0.2-0.1,0.4-0.2,0.6c0.1-0.2,0.1-0.4,0.1-0.6
                                        C76.9,263.1,76.8,263,76.8,262.9 M75.9,259.1c-0.6,0-1.2,0.2-1.7,0.5s-0.7,0.8-0.7,1.3c0,0.3,0.1,0.6,0.3,0.9
                                        c0.2,0.3,0.6,0.6,1.3,0.8c0.3,0.1,0.5,0.2,0.6,0.3c0.1,0.1,0.2,0.2,0.2,0.3c0,0.2-0.1,0.3-0.2,0.4s-0.3,0.1-0.5,0.1
                                        c-0.5,0-1-0.3-1.6-0.8v1.8c0.7,0.3,1.3,0.5,1.9,0.5c0.7,0,1.3-0.2,1.8-0.6s0.7-0.9,0.7-1.4c0-0.8-0.6-1.4-1.7-1.8
                                        c-0.4-0.1-0.6-0.3-0.6-0.5c0-0.1,0-0.2,0.1-0.3s0.2-0.1,0.4-0.1c0.4,0,0.9,0.2,1.3,0.6v-1.8C77,259.2,76.5,259.1,75.9,259.1
                                        L75.9,259.1z"/>
                                    <path d="M80.2,263.2c0,0.5,0.2,0.8,0.4,1.1c-0.2,0-0.3-0.1-0.3-0.1c-0.1-0.1-0.1-0.3-0.1-0.7V263.2 M81.1,257.4h-1.6
                                        l-0.2,1.8h-0.8v1.4h0.7v2.8c0,0.6,0.1,1.1,0.4,1.4s0.7,0.4,1.3,0.4c0.4,0,0.7-0.1,1.1-0.2v-1.6c-0.2,0.1-0.3,0.2-0.4,0.2
                                        c-0.3,0-0.4-0.2-0.4-0.6v-2.4h0.9v-1.4h-1V257.4L81.1,257.4z"/>
                                    <path d="M85.3,259.1c-0.6,0-1.2,0.2-1.9,0.5v1.6c0.5-0.4,0.9-0.6,1.4-0.6c0.3,0,0.6,0.1,0.7,0.2s0.3,0.3,0.3,0.5
                                        c-2,0.3-3.1,1-3.1,2.2c0,0.5,0.2,1,0.5,1.3c0.4,0.4,0.8,0.5,1.2,0.5c0.2,0,0.5-0.1,0.7-0.2s0.4-0.3,0.6-0.5
                                        c0,0.2,0.1,0.4,0.2,0.6h2c-0.2-0.6-0.4-1.1-0.4-1.7v-2c0-0.5-0.1-1-0.3-1.3c-0.2-0.4-0.5-0.6-0.8-0.8S85.7,259.1,85.3,259.1
                                        L85.3,259.1z M85.2,263.9c-0.2,0-0.3-0.1-0.4-0.2s-0.2-0.3-0.2-0.5c0-0.5,0.4-0.9,1.2-0.9v0.8c0,0.3-0.1,0.5-0.2,0.6
                                        S85.4,263.9,85.2,263.9L85.2,263.9z"/>
                                    <path d="M92.9,261.4c0.1,0.2,0.1,0.5,0.1,0.8s0,0.5-0.1,0.7c0-0.2,0-0.4,0-0.7C93,261.9,92.9,261.6,92.9,261.4 M89.5,261.7
                                        c0,0.1,0,0.3,0,0.4c0,0.2,0,0.4,0,0.6c0-0.2,0-0.4,0-0.6C89.5,262.1,89.5,261.9,89.5,261.7 M91.2,259.1c-0.8,0-1.5,0.3-2,0.9
                                        s-0.8,1.3-0.8,2.3c0,0.9,0.2,1.6,0.7,2.2s1.1,0.9,2,0.9s1.5-0.3,2-0.9s0.8-1.3,0.8-2.2c0-1-0.3-1.7-0.8-2.3
                                        C92.7,259.4,92,259.1,91.2,259.1L91.2,259.1z M91.2,263.7c-0.2,0-0.4-0.1-0.5-0.4s-0.2-0.6-0.2-1.2c0-0.5,0.1-0.9,0.2-1.2
                                        c0.1-0.3,0.3-0.4,0.6-0.4s0.4,0.1,0.5,0.4s0.2,0.7,0.2,1.2s-0.1,0.9-0.2,1.2S91.5,263.7,91.2,263.7L91.2,263.7z"/>
                                    <path d="M102.8,256.9h-2l-2.9,4.4v1.5h2.9v2.4h2v-2.4h1v-1.4h-1V256.9L102.8,256.9z M99.5,261.3l1.4-2.1v2.1H99.5L99.5,261.3
                                        z"/>
                                </g>
                            </g>
                        </g>
                    </g>
                    <g id="_x3C_q3_x3E_">
                        <g>
                            <g>
                                <path id="path3_1" d="M216.4,432.1c-44.9,0-88.5-14.4-126.2-41.7l126.2-173.7l126.2,173.7
                                    C304.9,417.7,261.3,432.1,216.4,432.1z"/>
                                <path id="path3_2" d="M216.4,217.6l125.5,172.7c-37.5,27-80.9,41.3-125.5,41.3s-88-14.3-125.5-41.3L216.4,217.6
                                     M216.4,215.9L89.5,390.6c38.6,28,82.7,42.1,126.9,42.1s88.3-14,126.9-42.1L216.4,215.9L216.4,215.9z"/>
                            </g>
                        </g>
                        <g>
                            <g>
                                <g>
                                    <path d="M196.4,359.7v0.5l-0.1-0.2c0,0,0-0.1-0.1-0.1L196.4,359.7 M194.3,358.6c-0.6,0-1.2,0.3-1.6,1
                                        c-0.4,0.6-0.6,1.4-0.6,2.2s0.2,1.5,0.6,2.1s0.9,0.9,1.5,0.9c0.2,0,0.4-0.1,0.6-0.2c0.2-0.1,0.4-0.3,0.6-0.5v3.3h2v-8.7h-1.3
                                        l-0.5,0.5c-0.2-0.2-0.3-0.4-0.5-0.5C194.8,358.6,194.6,358.6,194.3,358.6L194.3,358.6z M194.9,363c-0.2,0-0.4-0.1-0.5-0.4
                                        c-0.1-0.3-0.2-0.6-0.2-1s0.1-0.8,0.2-1c0.1-0.3,0.3-0.4,0.5-0.4c0.1,0,0.2,0,0.3,0.1s0.2,0.1,0.2,0.2v1.5
                                        c0,0.3-0.1,0.5-0.2,0.7S195,363,194.9,363L194.9,363z"/>
                                    <path d="M202.5,362.4v1.1l-0.1-0.4C202.4,362.9,202.5,362.7,202.5,362.4 M199.6,362.8c0,0.2,0.1,0.4,0.2,0.5s0.2,0.3,0.3,0.4
                                        c-0.1,0-0.2-0.1-0.3-0.2C199.7,363.4,199.7,363.1,199.6,362.8 M203.5,358.7h-2v3.7c0,0.2,0,0.4-0.1,0.5s-0.2,0.2-0.4,0.2
                                        c-0.1,0-0.2-0.1-0.3-0.2c-0.1-0.1-0.1-0.3-0.1-0.5v-3.7h-2v4c0,0.6,0.2,1,0.5,1.4s0.7,0.6,1.2,0.6c0.3,0,0.5-0.1,0.7-0.2
                                        c0.2-0.1,0.4-0.3,0.6-0.5l0.2,0.6h1.7L203.5,358.7L203.5,358.7z"/>
                                    <path d="M205.5,361.8l0.1,0.3c0.1,0.4,0.3,0.8,0.5,1.1c0,0,0,0,0-0.1C205.7,362.8,205.5,362.4,205.5,361.8L205.5,361.8
                                         M207.2,358.6c-0.8,0-1.5,0.3-2,0.9c-0.5,0.6-0.8,1.3-0.8,2.2s0.3,1.6,0.8,2.2c0.5,0.6,1.2,0.9,2.1,0.9
                                        c0.7,0,1.4-0.2,2.1-0.6v-1.8c-0.4,0.3-0.7,0.5-0.9,0.6c-0.2,0.1-0.5,0.2-0.7,0.2c-0.3,0-0.6-0.1-0.9-0.3
                                        c-0.2-0.2-0.4-0.5-0.5-0.9h3.2v-0.6c0-0.9-0.2-1.6-0.7-2.1C208.6,358.8,208,358.6,207.2,358.6L207.2,358.6z M206.4,360.8
                                        c0-0.4,0.1-0.7,0.2-0.9s0.3-0.3,0.6-0.3c0.2,0,0.4,0.1,0.5,0.3s0.2,0.4,0.2,0.7v0.2H206.4L206.4,360.8z"/>
                                    <path d="M211.7,359.9c-0.1,0.2-0.1,0.4-0.1,0.6c0,0.1,0,0.2,0,0.3l0,0c-0.1-0.1-0.1-0.3-0.1-0.4
                                        C211.5,360.2,211.5,360,211.7,359.9 M213.7,362.3c0.1,0.2,0.1,0.3,0.1,0.4c0,0.2-0.1,0.4-0.2,0.6c0.1-0.2,0.1-0.4,0.1-0.6
                                        C213.7,362.6,213.7,362.5,213.7,362.3 M212.8,358.6c-0.6,0-1.2,0.2-1.7,0.5s-0.7,0.8-0.7,1.3c0,0.3,0.1,0.6,0.3,0.9
                                        c0.2,0.3,0.6,0.6,1.3,0.8c0.3,0.1,0.5,0.2,0.6,0.3s0.2,0.2,0.2,0.3c0,0.2-0.1,0.3-0.2,0.4c-0.1,0.1-0.3,0.1-0.5,0.1
                                        c-0.5,0-1-0.3-1.6-0.8v1.8c0.7,0.3,1.3,0.5,1.9,0.5c0.7,0,1.3-0.2,1.8-0.6c0.5-0.4,0.7-0.9,0.7-1.4c0-0.8-0.6-1.4-1.7-1.8
                                        c-0.4-0.1-0.6-0.3-0.6-0.5c0-0.1,0-0.2,0.1-0.3s0.2-0.1,0.4-0.1c0.4,0,0.9,0.2,1.3,0.6v-1.8
                                        C213.9,358.7,213.3,358.6,212.8,358.6L212.8,358.6z"/>
                                    <path d="M217.1,362.6c0,0.5,0.2,0.8,0.4,1.1c-0.2,0-0.3-0.1-0.3-0.1c-0.1-0.1-0.1-0.3-0.1-0.7V362.6 M218,356.9h-1.6
                                        l-0.2,1.8h-0.8v1.4h0.7v2.8c0,0.6,0.1,1.1,0.4,1.4c0.3,0.3,0.7,0.4,1.3,0.4c0.4,0,0.7-0.1,1.1-0.2v-1.6
                                        c-0.2,0.1-0.3,0.2-0.4,0.2c-0.3,0-0.4-0.2-0.4-0.6v-2.4h0.9v-1.4h-1V356.9L218,356.9z"/>
                                    <path d="M222.1,358.6c-0.6,0-1.2,0.2-1.9,0.5v1.6c0.5-0.4,0.9-0.6,1.4-0.6c0.3,0,0.6,0.1,0.7,0.2s0.3,0.3,0.3,0.5
                                        c-2,0.3-3.1,1-3.1,2.2c0,0.5,0.2,1,0.5,1.3c0.4,0.4,0.8,0.5,1.2,0.5c0.2,0,0.5-0.1,0.7-0.2c0.2-0.1,0.4-0.3,0.6-0.5
                                        c0,0.2,0.1,0.4,0.2,0.6h2c-0.2-0.6-0.4-1.1-0.4-1.7v-2c0-0.5-0.1-1-0.3-1.3c-0.2-0.4-0.5-0.6-0.8-0.8
                                        S222.6,358.6,222.1,358.6L222.1,358.6z M222.1,363.3c-0.2,0-0.3-0.1-0.4-0.2c-0.1-0.1-0.2-0.3-0.2-0.5c0-0.5,0.4-0.9,1.2-0.9
                                        v0.8c0,0.3-0.1,0.5-0.2,0.6C222.4,363.2,222.3,363.3,222.1,363.3L222.1,363.3z"/>
                                    <path d="M229.8,360.8c0.1,0.2,0.1,0.5,0.1,0.8s0,0.5-0.1,0.7c0-0.2,0-0.4,0-0.7S229.8,361.1,229.8,360.8 M226.4,361.2
                                        c0,0.1,0,0.3,0,0.4c0,0.2,0,0.4,0,0.6c0-0.2,0-0.4,0-0.6C226.4,361.5,226.4,361.3,226.4,361.2 M228.1,358.6
                                        c-0.8,0-1.5,0.3-2,0.9s-0.8,1.3-0.8,2.3c0,0.9,0.2,1.6,0.7,2.2c0.5,0.6,1.2,0.9,2,0.9s1.5-0.3,2-0.9c0.5-0.6,0.8-1.3,0.8-2.2
                                        c0-1-0.3-1.7-0.8-2.3C229.6,358.8,228.9,358.6,228.1,358.6L228.1,358.6z M228.1,363.2c-0.2,0-0.4-0.1-0.5-0.4
                                        c-0.1-0.3-0.2-0.6-0.2-1.2c0-0.5,0.1-0.9,0.2-1.2s0.3-0.4,0.6-0.4s0.4,0.1,0.5,0.4s0.2,0.7,0.2,1.2s-0.1,0.9-0.2,1.2
                                        S228.4,363.2,228.1,363.2L228.1,363.2z"/>
                                    <path d="M238.4,357.4c0.1,0.1,0.2,0.2,0.3,0.3c0.1,0.1,0.2,0.3,0.2,0.5c0,0.1,0,0.1,0,0.2
                                        C238.8,358.1,238.6,357.7,238.4,357.4 M239.3,361.9c0,0.1,0,0.2,0,0.3c0,0.4-0.1,0.7-0.4,1
                                        C239.1,362.8,239.3,362.4,239.3,361.9C239.3,362,239.3,361.9,239.3,361.9 M237.3,356.2c-0.7,0-1.3,0.2-2,0.5v1.8
                                        c0.6-0.4,1.1-0.6,1.5-0.6c0.3,0,0.5,0.1,0.7,0.2c0.2,0.2,0.3,0.4,0.3,0.6c0,0.3-0.1,0.5-0.3,0.6c-0.2,0.1-0.5,0.2-0.8,0.2
                                        h-0.6v1.4h0.9c0.4,0,0.7,0.1,0.9,0.3c0.2,0.2,0.3,0.4,0.3,0.7s-0.1,0.6-0.4,0.8c-0.2,0.2-0.5,0.3-0.9,0.3
                                        c-0.6,0-1.1-0.2-1.7-0.6v1.8c0.7,0.3,1.4,0.4,2,0.4c0.9,0,1.6-0.2,2.1-0.7s0.8-1.1,0.8-1.9c0-0.6-0.2-1-0.5-1.3
                                        s-0.8-0.5-1.4-0.6c0.5-0.2,0.8-0.5,1.1-0.8c0.2-0.3,0.4-0.7,0.4-1.1c0-0.4-0.1-0.8-0.4-1.1c-0.2-0.3-0.6-0.6-0.9-0.7
                                        C238.2,356.3,237.8,356.2,237.3,356.2L237.3,356.2z"/>
                                </g>
                            </g>
                        </g>
                    </g>
                    <g id="_x3C_q2_x3E_">
                        <g>
                            <g>
                                <path id="path2_1" d="M217.2,216.2l204.2-66.4c29.1,90.1-1.5,184.2-78,240.1L217.2,216.2z"/>
                                <path id="path2_2" d="M421.1,150.4c28.7,89.6-1.7,183.1-77.6,238.7L218,216.4L421.1,150.4 M421.7,149.2l-205.3,66.7
                                    l126.9,174.7C420.5,334.5,451.2,239.9,421.7,149.2L421.7,149.2z"/>
                            </g>
                        </g>
                        <g>
                            <g>
                                <g>
                                    <path d="M333.3,260.3v0.5l-0.1-0.2c0,0,0-0.1-0.1-0.1L333.3,260.3 M331.2,259.1c-0.6,0-1.2,0.3-1.6,1
                                        c-0.4,0.6-0.6,1.4-0.6,2.2c0,0.8,0.2,1.5,0.6,2.1c0.4,0.6,0.9,0.9,1.5,0.9c0.2,0,0.4-0.1,0.6-0.2c0.2-0.1,0.4-0.3,0.6-0.5
                                        v3.3h2v-8.7H333l-0.5,0.5c-0.2-0.2-0.3-0.4-0.5-0.5C331.7,259.1,331.5,259.1,331.2,259.1L331.2,259.1z M331.7,263.6
                                        c-0.2,0-0.4-0.1-0.5-0.4s-0.2-0.6-0.2-1s0.1-0.8,0.2-1c0.1-0.3,0.3-0.4,0.5-0.4c0.1,0,0.2,0,0.3,0.1s0.2,0.1,0.2,0.2v1.5
                                        c0,0.3-0.1,0.5-0.2,0.7S331.9,263.6,331.7,263.6L331.7,263.6z"/>
                                    <path d="M339.4,263v1.1l-0.1-0.4C339.3,263.4,339.4,263.2,339.4,263 M336.5,263.4c0,0.2,0.1,0.4,0.2,0.5
                                        c0.1,0.1,0.2,0.3,0.3,0.4c-0.1,0-0.2-0.1-0.3-0.2C336.6,263.9,336.5,263.7,336.5,263.4 M340.4,259.2h-2v3.7
                                        c0,0.2,0,0.4-0.1,0.5s-0.2,0.2-0.4,0.2c-0.1,0-0.2-0.1-0.3-0.2s-0.1-0.3-0.1-0.5v-3.7h-2v4c0,0.6,0.2,1,0.5,1.4
                                        s0.7,0.6,1.2,0.6c0.3,0,0.5-0.1,0.7-0.2s0.4-0.3,0.6-0.5l0.2,0.6h1.7L340.4,259.2L340.4,259.2z"/>
                                    <path d="M342.3,262.4l0.1,0.3c0.1,0.4,0.3,0.8,0.5,1.1c0,0,0,0,0-0.1C342.5,263.4,342.4,262.9,342.3,262.4L342.3,262.4
                                         M344.1,259.1c-0.8,0-1.5,0.3-2,0.9s-0.8,1.3-0.8,2.2c0,0.9,0.3,1.6,0.8,2.2s1.2,0.9,2.1,0.9c0.7,0,1.4-0.2,2.1-0.6v-1.8
                                        c-0.4,0.3-0.7,0.5-0.9,0.6s-0.5,0.2-0.7,0.2c-0.3,0-0.6-0.1-0.9-0.3c-0.2-0.2-0.4-0.5-0.5-0.9h3.2V262c0-0.9-0.2-1.6-0.7-2.1
                                        C345.4,259.4,344.9,259.1,344.1,259.1L344.1,259.1z M343.3,261.4c0-0.4,0.1-0.7,0.2-0.9c0.1-0.2,0.3-0.3,0.6-0.3
                                        c0.2,0,0.4,0.1,0.5,0.3c0.1,0.2,0.2,0.4,0.2,0.7v0.2L343.3,261.4L343.3,261.4z"/>
                                    <path d="M348.6,260.4c-0.1,0.2-0.1,0.4-0.1,0.6c0,0.1,0,0.2,0,0.3l0,0c-0.1-0.1-0.1-0.3-0.1-0.4
                                        C348.3,260.7,348.4,260.6,348.6,260.4 M350.6,262.9c0.1,0.2,0.1,0.3,0.1,0.4c0,0.2-0.1,0.4-0.2,0.6c0.1-0.2,0.1-0.4,0.1-0.6
                                        C350.6,263.1,350.6,263,350.6,262.9 M349.7,259.1c-0.6,0-1.2,0.2-1.7,0.5s-0.7,0.8-0.7,1.3c0,0.3,0.1,0.6,0.3,0.9
                                        s0.6,0.6,1.3,0.8c0.3,0.1,0.5,0.2,0.6,0.3c0.1,0.1,0.2,0.2,0.2,0.3c0,0.2-0.1,0.3-0.2,0.4c-0.1,0.1-0.3,0.1-0.5,0.1
                                        c-0.5,0-1-0.3-1.6-0.8v1.8c0.7,0.3,1.3,0.5,1.9,0.5c0.7,0,1.3-0.2,1.8-0.6s0.7-0.9,0.7-1.4c0-0.8-0.6-1.4-1.7-1.8
                                        c-0.4-0.1-0.6-0.3-0.6-0.5c0-0.1,0-0.2,0.1-0.3c0.1-0.1,0.2-0.1,0.4-0.1c0.4,0,0.9,0.2,1.3,0.6v-1.8
                                        C350.8,259.2,350.2,259.1,349.7,259.1L349.7,259.1z"/>
                                    <path d="M354,263.2c0,0.5,0.2,0.8,0.4,1.1c-0.2,0-0.3-0.1-0.3-0.1c-0.1-0.1-0.1-0.3-0.1-0.7L354,263.2 M354.9,257.4h-1.6
                                        l-0.2,1.8h-0.8v1.4h0.7v2.8c0,0.6,0.1,1.1,0.4,1.4c0.3,0.3,0.7,0.4,1.3,0.4c0.4,0,0.7-0.1,1.1-0.2v-1.6
                                        c-0.2,0.1-0.3,0.2-0.4,0.2c-0.3,0-0.4-0.2-0.4-0.6v-2.4h0.9v-1.4h-1V257.4L354.9,257.4z"/>
                                    <path d="M359,259.1c-0.6,0-1.2,0.2-1.9,0.5v1.6c0.5-0.4,0.9-0.6,1.4-0.6c0.3,0,0.6,0.1,0.7,0.2s0.3,0.3,0.3,0.5
                                        c-2,0.3-3.1,1-3.1,2.2c0,0.5,0.2,1,0.5,1.3c0.4,0.4,0.8,0.5,1.2,0.5c0.2,0,0.5-0.1,0.7-0.2s0.4-0.3,0.6-0.5
                                        c0,0.2,0.1,0.4,0.2,0.6h2c-0.2-0.6-0.4-1.1-0.4-1.7v-2c0-0.5-0.1-1-0.3-1.3c-0.2-0.4-0.5-0.6-0.8-0.8S359.5,259.1,359,259.1
                                        L359,259.1z M359,263.9c-0.2,0-0.3-0.1-0.4-0.2c-0.1-0.1-0.2-0.3-0.2-0.5c0-0.5,0.4-0.9,1.2-0.9v0.8c0,0.3-0.1,0.5-0.2,0.6
                                        C359.3,263.8,359.2,263.9,359,263.9L359,263.9z"/>
                                    <path d="M366.7,261.4c0.1,0.2,0.1,0.5,0.1,0.8s0,0.5-0.1,0.7c0-0.2,0-0.4,0-0.7C366.7,261.9,366.7,261.6,366.7,261.4
                                         M363.3,261.7c0,0.1,0,0.3,0,0.4c0,0.2,0,0.4,0,0.6c0-0.2,0-0.4,0-0.6C363.3,262.1,363.3,261.9,363.3,261.7 M365,259.1
                                        c-0.8,0-1.5,0.3-2,0.9s-0.8,1.3-0.8,2.3c0,0.9,0.2,1.6,0.7,2.2s1.2,0.9,2,0.9s1.5-0.3,2-0.9s0.8-1.3,0.8-2.2
                                        c0-1-0.3-1.7-0.8-2.3C366.5,259.4,365.8,259.1,365,259.1L365,259.1z M365,263.7c-0.2,0-0.4-0.1-0.5-0.4s-0.2-0.6-0.2-1.2
                                        c0-0.5,0.1-0.9,0.2-1.2s0.3-0.4,0.6-0.4s0.4,0.1,0.5,0.4s0.2,0.7,0.2,1.2s-0.1,0.9-0.2,1.2S365.2,263.7,365,263.7L365,263.7z
                                        "/>
                                    <path d="M375.5,258c0.1,0,0.1,0.1,0.2,0.1c0.3,0.2,0.4,0.5,0.4,0.9c0,0.1,0,0.3,0,0.4c0-0.1,0-0.1,0-0.2
                                        C376,258.8,375.9,258.3,375.5,258 M374.5,256.7c-0.6,0-1.3,0.2-2,0.5v1.8c0.6-0.4,1.1-0.7,1.6-0.7c0.3,0,0.6,0.1,0.8,0.3
                                        c0.2,0.2,0.3,0.4,0.3,0.6s-0.1,0.4-0.2,0.5s-0.4,0.4-0.8,0.8c-0.9,0.7-1.4,1.3-1.7,1.7c-0.2,0.4-0.4,1.1-0.4,1.9v1h5.2v-1.6
                                        H374c0-0.3,0.1-0.5,0.2-0.7s0.5-0.5,1-1c0.7-0.6,1.2-1.1,1.5-1.5s0.4-0.8,0.4-1.4c0-0.7-0.2-1.2-0.7-1.6
                                        C375.9,256.9,375.2,256.7,374.5,256.7L374.5,256.7z"/>
                                </g>
                            </g>
                        </g>
                    </g>
                    <g id="_x3C_q1_x3E_">
                        <g>
                            <g>
                                <path id="path1_1" d="M216.9,0.5c94.7,0.2,174.8,58.4,204.2,148.4l-204.2,66.4L216.9,0.5L216.9,0.5z"/>
                                <path id="path1_2" d="M217.4,1C311.5,1.4,391,59.2,420.5,148.5l-203.1,66V1 M216.4,0v215.9l205.3-66.7
                                    C392.2,58.5,311.8,0,216.4,0L216.4,0z"/>
                            </g>
                        </g>
                        <g>
                            <g>
                                <g>
                                    <path d="M281,99.3v0.5l-0.1-0.2c0,0,0-0.1-0.1-0.1L281,99.3 M278.9,98.2c-0.6,0-1.2,0.3-1.6,0.9s-0.6,1.4-0.6,2.2
                                        c0,0.8,0.2,1.5,0.6,2.1s0.9,0.9,1.5,0.9c0.2,0,0.4-0.1,0.6-0.2s0.4-0.3,0.6-0.5v3.3h2v-8.7h-1.3l-0.5,0.5
                                        c-0.2-0.2-0.3-0.4-0.5-0.5C279.4,98.2,279.2,98.2,278.9,98.2L278.9,98.2z M279.5,102.6c-0.2,0-0.4-0.1-0.5-0.4
                                        s-0.2-0.6-0.2-1s0.1-0.8,0.2-1c0.1-0.3,0.3-0.4,0.5-0.4c0.1,0,0.2,0,0.3,0.1c0.1,0.1,0.2,0.1,0.2,0.2v1.5
                                        c0,0.3-0.1,0.5-0.2,0.7S279.6,102.6,279.5,102.6L279.5,102.6z"/>
                                    <path d="M287.1,102.1v1.1l-0.1-0.4C287,102.5,287.1,102.3,287.1,102.1 M284.2,102.4c0,0.2,0.1,0.4,0.2,0.5s0.2,0.3,0.3,0.4
                                        c-0.1,0-0.2-0.1-0.3-0.2C284.3,103,284.3,102.7,284.2,102.4 M288.1,98.3h-2v3.7c0,0.2,0,0.4-0.1,0.5s-0.2,0.2-0.4,0.2
                                        c-0.1,0-0.2-0.1-0.3-0.2c-0.1-0.1-0.1-0.3-0.1-0.5v-3.7h-2v4c0,0.6,0.2,1,0.5,1.4s0.7,0.6,1.2,0.6c0.3,0,0.5-0.1,0.7-0.2
                                        s0.4-0.3,0.6-0.5l0.2,0.6h1.7L288.1,98.3L288.1,98.3z"/>
                                    <path d="M290.1,101.5l0.1,0.3c0.1,0.4,0.3,0.8,0.5,1.1c0,0,0,0,0-0.1C290.3,102.5,290.1,102,290.1,101.5L290.1,101.5
                                         M291.8,98.2c-0.8,0-1.5,0.3-2,0.9s-0.8,1.3-0.8,2.2c0,0.9,0.3,1.6,0.8,2.2s1.2,0.9,2.1,0.9c0.7,0,1.4-0.2,2.1-0.6V102
                                        c-0.4,0.3-0.7,0.5-0.9,0.6c-0.2,0.1-0.5,0.2-0.7,0.2c-0.3,0-0.6-0.1-0.9-0.3c-0.2-0.2-0.4-0.5-0.5-0.9h3.2v-0.5
                                        c0-0.9-0.2-1.6-0.7-2.1C293.2,98.4,292.6,98.2,291.8,98.2L291.8,98.2z M291,100.5c0-0.4,0.1-0.7,0.2-0.9
                                        c0.1-0.2,0.3-0.3,0.6-0.3c0.2,0,0.4,0.1,0.5,0.3c0.1,0.2,0.2,0.4,0.2,0.7v0.2L291,100.5L291,100.5z"/>
                                    <path d="M296.3,99.5c-0.1,0.2-0.1,0.4-0.1,0.6c0,0.1,0,0.2,0,0.3l0,0c-0.1-0.1-0.1-0.3-0.1-0.4
                                        C296.1,99.8,296.1,99.6,296.3,99.5 M298.3,102c0.1,0.2,0.1,0.3,0.1,0.4c0,0.2-0.1,0.4-0.2,0.6c0.1-0.2,0.1-0.4,0.1-0.6
                                        C298.4,102.2,298.3,102.1,298.3,102 M297.4,98.2c-0.6,0-1.2,0.2-1.7,0.5s-0.7,0.8-0.7,1.3c0,0.3,0.1,0.6,0.3,0.9
                                        c0.2,0.3,0.6,0.6,1.3,0.8c0.3,0.1,0.5,0.2,0.6,0.3c0.1,0.1,0.2,0.2,0.2,0.3c0,0.2-0.1,0.3-0.2,0.4s-0.3,0.1-0.5,0.1
                                        c-0.5,0-1-0.3-1.6-0.8v1.8c0.7,0.3,1.3,0.5,1.9,0.5c0.7,0,1.3-0.2,1.8-0.6s0.7-0.9,0.7-1.4c0-0.8-0.6-1.4-1.7-1.8
                                        c-0.4-0.1-0.6-0.3-0.6-0.5c0-0.1,0-0.2,0.1-0.3c0.1-0.1,0.2-0.1,0.4-0.1c0.4,0,0.9,0.2,1.3,0.6v-1.8
                                        C298.5,98.3,298,98.2,297.4,98.2L297.4,98.2z"/>
                                    <path d="M301.7,102.3c0,0.5,0.2,0.8,0.4,1.1c-0.2,0-0.3-0.1-0.3-0.1c-0.1-0.1-0.1-0.3-0.1-0.7V102.3 M302.6,96.5H301
                                        l-0.2,1.8H300v1.4h0.7v2.8c0,0.6,0.1,1.1,0.4,1.4s0.7,0.4,1.3,0.4c0.4,0,0.7-0.1,1.1-0.2v-1.6c-0.2,0.1-0.3,0.2-0.4,0.2
                                        c-0.3,0-0.4-0.2-0.4-0.6v-2.4h0.9v-1.4h-1V96.5L302.6,96.5z"/>
                                    <path d="M306.8,98.2c-0.6,0-1.2,0.2-1.9,0.5v1.6c0.5-0.4,0.9-0.6,1.4-0.6c0.3,0,0.6,0.1,0.7,0.2c0.2,0.1,0.3,0.3,0.3,0.5
                                        c-2,0.3-3.1,1-3.1,2.2c0,0.5,0.2,1,0.5,1.3c0.4,0.4,0.8,0.5,1.2,0.5c0.2,0,0.5-0.1,0.7-0.2s0.4-0.3,0.6-0.5
                                        c0,0.2,0.1,0.4,0.2,0.6h2c-0.2-0.6-0.4-1.1-0.4-1.7v-2c0-0.5-0.1-1-0.3-1.3c-0.2-0.4-0.5-0.6-0.8-0.8S307.2,98.2,306.8,98.2
                                        L306.8,98.2z M306.7,102.9c-0.2,0-0.3-0.1-0.4-0.2s-0.2-0.3-0.2-0.5c0-0.5,0.4-0.9,1.2-0.9v0.8c0,0.3-0.1,0.5-0.2,0.6
                                        C307,102.9,306.9,102.9,306.7,102.9L306.7,102.9z"/>
                                    <path d="M314.4,100.4c0.1,0.2,0.1,0.5,0.1,0.8s0,0.5-0.1,0.7c0-0.2,0-0.4,0-0.7C314.4,101,314.4,100.7,314.4,100.4
                                         M311,100.8c0,0.1,0,0.3,0,0.4c0,0.2,0,0.4,0,0.6c0-0.2,0-0.4,0-0.6C311,101.1,311,101,311,100.8 M312.7,98.2
                                        c-0.8,0-1.5,0.3-2,0.9s-0.8,1.3-0.8,2.3c0,0.9,0.2,1.6,0.7,2.2s1.2,0.9,2,0.9s1.5-0.3,2-0.9s0.8-1.3,0.8-2.2
                                        c0-1-0.3-1.7-0.8-2.3C314.2,98.4,313.5,98.2,312.7,98.2L312.7,98.2z M312.7,102.8c-0.2,0-0.4-0.1-0.5-0.4s-0.2-0.6-0.2-1.2
                                        c0-0.5,0.1-0.9,0.2-1.2c0.1-0.3,0.3-0.4,0.6-0.4s0.4,0.1,0.5,0.4s0.2,0.7,0.2,1.2s-0.1,0.9-0.2,1.2S313,102.8,312.7,102.8
                                        L312.7,102.8z"/>
                                    <path d="M322.6,97.6V98h-0.3l0,0C322.4,97.8,322.5,97.7,322.6,97.6 M323.6,95.9H322v0.3c0,0.4-0.1,0.8-0.3,1
                                        s-0.5,0.3-0.9,0.3h-0.3v1.4h1.3v5.3h1.9v-8.3H323.6z"/>
                                </g>
                            </g>
                        </g>
                    </g>
                </g>
            </g>
        </g>
        </svg>