<svg version="1.1" xmlns="http://www.w3.org/2000/svg" xmlns:xlink="http://www.w3.org/1999/xlink" x="0px" y="0px"
                width="100%" height="100%" enable-background="new 0 0 494 498" xml:space="preserve">
                    <g id="chart">
                        <rect x="389.2" y="260.4" fill="none" width="9.1" height="0"/>
                        <g id="under">
                            <circle fill="#999999" stroke="#000000" stroke-width="2.2802" stroke-miterlimit="10" cx="247.1" cy="249" r="217"/>
                            <path fill="none" stroke="#000000" stroke-miterlimit="10" d="M168.6,415.5c-14,29-14,29-14,29"/>
                            <path fill="none" stroke="#000000" stroke-miterlimit="10" d="M425.6,207.5c33-7,33-7,33-7"/>
                            <path fill="none" stroke="#000000" stroke-miterlimit="10" d="M101.6,135.5c-26-20-26-20-26-20"/>
                        </g>
                        <g id="graph">
                            <g id="avaliacao_riscos">
                                <g>
                                    <path id="path1" stroke="#000000" stroke-width="1.8711" stroke-miterlimit="10" d="M245.8,249.2l-82-168
                                        c26.4-12.9,52.5-18.9,82-18.9V249.2z"/>
                                </g>
                            </g>
                            <g id="politicas">
                                <g>
                                    <path id="path2" stroke="#000000" stroke-width="1.8711" stroke-miterlimit="10" d="M245.8,249.2L98.5,134.1
                                        c18.1-23.2,38.9-40,65.4-52.9L245.8,249.2z"/>
                                </g>
                            </g>
                            <g id="auditorias">
                                <g>
                                    <path id="path3" stroke="#000000" stroke-width="1.8711" stroke-miterlimit="10" d="M245.8,249.2L63,210.4
                                        c6.1-28.8,17.4-53,35.5-76.2L245.8,249.2z"/>
                                </g>
                            </g>
                            <g id="treinamento">
                                <g>
                                    <path id="path4" stroke="#000000" stroke-width="1.8711" stroke-miterlimit="10" d="M245.8,249.2L63.7,291.3
                                        c-6.6-28.7-6.8-52.1-0.7-80.9L245.8,249.2z"/>
                                </g>
                            </g>
                            <g id="manutencao_programa">
                                <g>
                                    <path id="path5" stroke="#000000" stroke-width="1.8711" stroke-miterlimit="10" d="M245.8,249.2L100.5,366.9
                                        C82,344,70.3,320,63.7,291.3L245.8,249.2z"/>
                                </g>
                            </g>
                            <g id="teste_simulacao">
                                <g>
                                    <path id="path6" stroke="#000000" stroke-width="1.8711" stroke-miterlimit="10" d="M245.8,249.2l-79,169.4
                                        c-26.7-12.4-47.8-28.9-66.3-51.8L245.8,249.2z"/>
                                </g>
                            </g>
                            <g id="continuidade_negocio">
                                <g>
                                    <path id="path7" stroke="#000000" stroke-width="1.8711" stroke-miterlimit="10" d="M245.8,249.2v187
                                        c-29.4,0-52.3-5.1-79-17.5L245.8,249.2z"/>
                                </g>
                            </g>
                            <g id="dr">
                                <g>
                                    <path id="path8" stroke="#000000" stroke-width="1.8711" stroke-miterlimit="10" d="M245.8,249.2l82,168
                                        c-26.4,12.9-52.5,18.9-82,18.9V249.2z"/>
                                </g>
                            </g>
                            <g id="gestao_crises">
                                <g>
                                    <path id="path9" stroke="#000000" stroke-width="1.8711" stroke-miterlimit="10" d="M245.8,249.2l147.3,115.1
                                        c-18.1,23.2-38.9,40-65.4,52.9L245.8,249.2z"/>
                                </g>
                            </g>
                            <g id="coe">
                                <g>
                                    <path id="path10" stroke="#000000" stroke-width="1.8711" stroke-miterlimit="10" d="M245.8,249.2l182.9,38.9
                                        c-6.1,28.8-17.4,53-35.5,76.2L245.8,249.2z"/>
                                </g>
                            </g>
                            <g id="resposta_incidentes">
                                <g>
                                    <path id="path11" stroke="#000000" stroke-width="1.8711" stroke-miterlimit="10" d="M245.8,249.2L428,207.2
                                        c6.6,28.7,6.8,52.1,0.7,80.9L245.8,249.2z"/>
                                </g>
                            </g>
                            <g id="estrategia_negocio">
                                <g>
                                    <path id="path12" stroke="#000000" stroke-width="1.8711" stroke-miterlimit="10" d="M245.8,249.2l145.3-117.7
                                        c18.5,22.9,30.3,46.9,36.9,75.6L245.8,249.2z"/>
                                </g>
                            </g>
                            <g id="estrategia_tecnologia">
                                <g>
                                    <path id="path13" stroke="#000000" stroke-width="1.8711" stroke-miterlimit="10" d="M245.8,249.2l79-169.4
                                        c26.7,12.4,47.8,28.9,66.3,51.8L245.8,249.2z"/>
                                </g>
                            </g>
                            <g id="impacto_negocio">
                                <g>
                                    <path id="path14" stroke="#000000" stroke-width="1.8711" stroke-miterlimit="10" d="M245.8,249.2v-187
                                        c29.4,0,52.3,5.1,79,17.5L245.8,249.2z"/>
                                </g>
                            </g>
                        </g>
                        <g id="ontop">
                            <circle fill="#FFFFFF" stroke="#000000" stroke-width="1.8336" stroke-miterlimit="10" cx="246.1" cy="251" r="88"/>
                            <g id="_x3C_texto_x3E_">
                                <text transform="matrix(1 0 0 1 199.4041 111.292)"><tspan x="0" y="0" font-family="'MyriadPro-Bold'" font-size="7px">Avaliação</tspan><tspan x="1.9" y="9.6" font-family="'MyriadPro-Bold'" font-size="7px">de riscos</tspan></text>
                                <text transform="matrix(1 0 0 1 254.4206 105.7837)"><tspan x="0" y="0" font-family="'MyriadPro-Bold'" font-size="7px">Avaliação de</tspan><tspan x="2.7" y="9.6" font-family="'MyriadPro-Bold'" font-size="7px">Impacto de</tspan><tspan x="8" y="19.2" font-family="'MyriadPro-Bold'" font-size="7px">Negócio</tspan></text>
                                <text transform="matrix(1 0 0 1 310.5042 135.688)"><tspan x="0" y="0" font-family="'MyriadPro-Bold'" font-size="7px">Estratégia de</tspan><tspan x="3.7" y="9.6" font-family="'MyriadPro-Bold'" font-size="7px">Tecnologia</tspan></text>
                                <text transform="matrix(1 0 0 1 352.3938 184.0181)"><tspan x="0" y="0" font-family="'MyriadPro-Bold'" font-size="7px">Estratégia de</tspan><tspan x="8.7" y="9.6" font-family="'MyriadPro-Bold'" font-size="7px">Negócio</tspan></text>
                                <text transform="matrix(1 0 0 1 342.3528 243.7954)"><tspan x="0" y="0" font-family="'MyriadPro-Bold'" font-size="7px">Resposta a Incidentes</tspan><tspan x="18.7" y="9.6" font-family="'MyriadPro-Bold'" font-size="7px">e Emergências</tspan></text>
                                <text transform="matrix(1 0 0 1 364.9739 311.0918)" font-family="'MyriadPro-Bold'" font-size="7px">COE</text>
                                <text transform="matrix(1 0 0 1 318.1565 357.9277)"><tspan x="0" y="0" font-family="'MyriadPro-Bold'" font-size="7px">Gestão de</tspan><tspan x="7.2" y="9.6" font-family="'MyriadPro-Bold'" font-size="7px">Crises</tspan></text>
                                <text transform="matrix(1 0 0 1 251.4538 376.3262)"><tspan x="0" y="0" font-family="'MyriadPro-Bold'" font-size="7px">Continuidade </tspan><tspan x="-1.5" y="9.6" font-family="'MyriadPro-Bold'" font-size="7px">de  Tecnologia </tspan><tspan x="17.5" y="19.2" font-family="'MyriadPro-Bold'" font-size="7px">(DR)</tspan></text>
                                <text transform="matrix(1 0 0 1 191.4392 381.8213)"><tspan x="0" y="0" font-family="'MyriadPro-Bold'" font-size="7px">Continuidade</tspan><tspan x="4.3" y="9.6" font-family="'MyriadPro-Bold'" font-size="7px">de Negócio</tspan></text>
                                <text transform="matrix(1 0 0 1 143.6135 358.4053)"><tspan x="0" y="0" font-family="'MyriadPro-Bold'" font-size="7px">Testes &amp;</tspan><tspan x="-5.3" y="9.6" font-family="'MyriadPro-Bold'" font-size="7px">Simulações</tspan></text>
                                <text transform="matrix(1 0 0 1 95.7878 306.0781)"><tspan x="0" y="0" font-family="'MyriadPro-Bold'" font-size="7px">Manutenção</tspan><tspan x="-0.9" y="9.6" font-family="'MyriadPro-Bold'" font-size="7px">do Programa</tspan></text>
                                <text transform="matrix(1 0 0 1 85.6199 253.2734)" font-family="'MyriadPro-Bold'" font-size="7px">Treinamento</text>
                                <text transform="matrix(1 0 0 1 99.466 187.9736)"><tspan x="0" y="0" font-family="'MyriadPro-Bold'" font-size="7px">Auditorias</tspan><tspan x="-0.7" y="9.6" font-family="'MyriadPro-Bold'" font-size="7px">(Readness)</tspan></text>
                                <text transform="matrix(1 0 0 1 140.0408 139.6396)"><tspan x="0" y="0" font-family="'MyriadPro-Bold'" font-size="7px">Políticas e</tspan><tspan x="-3.5" y="9.6" font-family="'MyriadPro-Bold'" font-size="7px">Governança</tspan></text>
                                <g>
                                    <g>
                                        <path d="M67.3,329.3c0.1-0.7,0.1-1.6-0.2-2.4c-0.4-0.9-1-1.1-1.8-0.8c-0.7,0.3-0.9,0.9-0.9,2.1c0,1.7-0.6,3.1-2.2,3.8
                                            c-1.9,0.8-3.9,0.2-4.8-1.9c-0.4-1-0.5-1.8-0.4-2.5c0.9-0.2,1.3-0.2,2.2-0.4c-0.1,0.4-0.1,1.2,0.2,2.1s1,1.1,1.6,0.8
                                            c0.7-0.3,0.8-0.9,0.9-2.3c0.1-1.8,0.8-3,2.4-3.6c1.9-0.8,3.9-0.3,4.9,2c0.4,1,0.5,2,0.4,2.7C68.6,329,68.2,329.1,67.3,329.3z"
                                            />
                                        <path d="M55.1,324c2.6-1,3.9-1.5,6.4-2.5c1.9-0.8,2.7-1.7,2.3-2.7c-0.4-1-1.5-1.2-3.5-0.5c-2.6,1-3.9,1.5-6.5,2.4
                                            c-0.3-0.8-0.5-1.2-0.8-2c2.5-0.9,3.8-1.4,6.3-2.3c3.5-1.3,5.6-0.5,6.5,1.7c0.8,2.1-0.2,4-3.8,5.5c-2.5,1-3.7,1.5-6.2,2.5
                                            C55.6,325.2,55.4,324.8,55.1,324z"/>
                                        <path d="M61.1,313.8c0.2-0.7,0.2-1.6-0.1-2.4c-0.3-0.9-1-1.2-1.7-1c-0.7,0.2-1,0.8-1.1,2c-0.2,1.7-0.8,3-2.5,3.6
                                            c-1.9,0.7-3.9-0.1-4.6-2.2c-0.4-1-0.3-1.9-0.2-2.5c0.9-0.1,1.3-0.1,2.2-0.2c-0.1,0.4-0.2,1.2,0.1,2.1s1,1.1,1.5,0.9
                                            c0.7-0.3,0.9-0.9,1-2.2c0.2-1.8,1-2.9,2.6-3.4c1.9-0.6,3.9,0,4.7,2.3c0.3,1,0.4,2.1,0.2,2.7C62.4,313.5,62,313.6,61.1,313.8z"
                                            />
                                        <path d="M51.6,307.2c0.3,1,0.5,1.5,0.8,2.4c-0.9,0.3-1.3,0.4-2.2,0.7c-0.9-2.8-1.3-4.2-2.2-7.1c0.9-0.3,1.3-0.4,2.2-0.6
                                            c0.3,1,0.4,1.5,0.7,2.5c3.7-1.1,5.6-1.7,9.3-2.8c0.2,0.8,0.4,1.2,0.6,2C57.1,305.4,55.3,306,51.6,307.2z"/>
                                        <path d="M52.9,294.9c0.3,1.3,0.5,2,0.9,3.3c1.1-0.3,1.6-0.5,2.7-0.8c-0.4-1.5-0.6-2.2-1-3.7c0.9-0.2,1.3-0.3,2.2-0.6
                                            c0.6,2.3,0.9,3.4,1.5,5.6c-4.6,1.3-6.9,2-11.5,3.3c-0.7-2.3-1-3.4-1.6-5.7c0.9-0.2,1.3-0.3,2.2-0.6c0.4,1.4,0.6,2.2,1,3.6
                                            c1-0.3,1.4-0.4,2.4-0.7c-0.4-1.3-0.5-2-0.9-3.3C51.6,295.2,52.1,295.1,52.9,294.9z"/>
                                        <path d="M57.4,291.9c-4.7,1.2-7,1.7-11.6,2.9c-0.2-1-0.4-1.5-0.6-2.5c1.5-1.2,2.3-1.8,3.8-2.9c1.1-0.8,2.4-1.7,3.7-2.4
                                            c0,0,0,0,0,0c-1.5,0.5-3.1,0.9-4.8,1.3c-1.4,0.3-2.1,0.5-3.4,0.8c-0.2-0.8-0.3-1.2-0.4-1.9c4.7-1,7-1.5,11.7-2.5
                                            c0.2,0.8,0.3,1.3,0.5,2.1c-1.6,1.2-2.4,1.8-4.1,3c-1.1,0.8-2.5,1.8-3.7,2.6c0,0,0,0,0,0c1.5-0.4,3.2-0.9,5.1-1.3
                                            c1.4-0.3,2.1-0.5,3.5-0.8C57.1,290.8,57.2,291.1,57.4,291.9z"/>
                                        <path d="M45.4,283c0.2,1,0.3,1.5,0.5,2.5c-0.9,0.2-1.3,0.3-2.2,0.5c-0.6-2.9-0.9-4.3-1.4-7.3c0.9-0.2,1.3-0.2,2.2-0.4
                                            c0.2,1,0.3,1.5,0.5,2.6c3.8-0.7,5.7-1.1,9.5-1.8c0.2,0.8,0.2,1.2,0.4,2C51.1,281.8,49.2,282.2,45.4,283z"/>
                                        <path d="M50.7,274.9c1.3,0.1,1.9,0.1,3.1,0.1c0.1,0.8,0.2,1.3,0.4,2.1c-4.9-0.2-7.4-0.4-12.3-0.8c-0.2-1.1-0.3-1.7-0.5-2.8
                                            c4.6-1.9,6.8-2.8,11.4-4.6c0.1,0.9,0.2,1.3,0.3,2.2c-1.2,0.5-1.8,0.7-2.9,1.2C50.4,273.3,50.5,273.8,50.7,274.9z M48.3,272.9
                                            c-1,0.4-1.5,0.6-2.4,1c-0.7,0.3-1.5,0.6-2.2,0.8c0,0,0,0,0,0c0.7,0,1.6,0,2.4,0.1c1,0.1,1.6,0.1,2.6,0.1
                                            C48.5,274.1,48.4,273.7,48.3,272.9z"/>
                                        <path d="M41,269.3c-0.2-0.7-0.5-1.7-0.6-2.8c-0.2-1.4,0-2.4,0.6-3.2c0.5-0.6,1.3-1,2.4-1.1c1.5-0.2,2.7,0.6,3.1,1.3
                                            c0,0,0,0,0.1,0c0.3-0.7,1-1.1,2.1-1.5c1.3-0.4,2.8-0.9,3.3-1.1c0.1,0.8,0.1,1.3,0.2,2.1c-0.3,0.2-1.3,0.5-2.7,1
                                            c-1.4,0.4-1.8,0.9-1.7,1.7c0,0.3,0,0.4,0.1,0.6c1.9-0.2,2.8-0.4,4.7-0.6c0.1,0.8,0.2,1.2,0.3,2C48,268.3,45.7,268.6,41,269.3z
                                            M45.8,266.5c0-0.3-0.1-0.5-0.1-0.8c-0.1-1.1-0.9-1.6-1.9-1.5c-1.1,0.1-1.6,0.8-1.5,1.8c0.1,0.5,0.2,0.8,0.2,1
                                            C43.8,266.7,44.5,266.7,45.8,266.5z"/>
                                    </g>
                                </g>
                                <g>
                                    <g>
                                        <path d="M404.1,381.8c-0.3,0.6-0.8,1.3-1.4,2c-1,1.1-2,1.6-3.2,1.5c-1.2,0-2.7-0.7-4.3-2.2c-1.7-1.6-2.5-3.1-2.8-4.3
                                            c-0.2-1.3,0.2-2.5,1.2-3.6c0.6-0.7,1.1-1.1,1.4-1.3C398.7,377,400.5,378.6,404.1,381.8z M395.4,376.4c-0.1,0.1-0.3,0.2-0.4,0.4
                                            c-1,1.1-0.7,2.8,1.4,4.8c1.9,1.7,3.5,2,4.5,0.8c0.3-0.3,0.4-0.5,0.5-0.7C399,379.6,397.8,378.6,395.4,376.4z"/>
                                        <path d="M390.3,386.3c0.8-0.8,1.2-1.2,2-2c-0.8-0.8-1.3-1.2-2.1-2c-0.9,0.9-1.3,1.3-2.2,2.2c-0.6-0.6-1-1-1.6-1.6
                                            c1.4-1.4,2-2.1,3.3-3.5c3.6,3.4,5.3,5.1,8.9,8.5c-1.4,1.4-2,2.1-3.4,3.5c-0.6-0.6-1-1-1.6-1.6c0.9-0.9,1.3-1.3,2.1-2.2
                                            c-0.7-0.7-1.1-1.1-1.8-1.8c-0.8,0.8-1.2,1.2-2,2C391.3,387.3,391,387,390.3,386.3z"/>
                                        <path d="M387.6,385.8c-0.6,0.1-1.4,0.3-1.9,0.8c-0.6,0.6-0.5,1.2,0.1,1.8c0.5,0.5,1.1,0.6,2.1,0.3c1.4-0.4,2.8-0.2,4.1,1.1
                                            c1.5,1.5,1.8,3.4,0.5,4.7c-0.6,0.6-1.3,0.9-1.9,1c-0.5-0.8-0.8-1.1-1.3-1.9c0.4,0,1-0.2,1.6-0.7c0.6-0.5,0.4-1.2,0-1.6
                                            c-0.6-0.6-1.1-0.5-2.2-0.2c-1.5,0.4-2.8,0-4-1.2c-1.4-1.5-1.9-3.4-0.5-4.9c0.6-0.6,1.5-0.9,2-1
                                            C386.7,384.7,387,385.1,387.6,385.8z"/>
                                        <path d="M381.5,394.8c0.8-0.8,1.3-1.1,2.1-1.9c-0.8-0.9-1.2-1.3-2-2.1c-0.9,0.9-1.4,1.3-2.3,2.1c-0.6-0.7-0.9-1-1.5-1.7
                                            c1.4-1.3,2.1-1.9,3.5-3.3c3.4,3.6,5.1,5.4,8.5,8.9c-1.4,1.3-2.1,2-3.6,3.3c-0.6-0.7-0.9-1-1.5-1.7c0.9-0.8,1.4-1.2,2.3-2.1
                                            c-0.7-0.7-1-1.1-1.7-1.9c-0.8,0.8-1.3,1.2-2.1,1.9C382.4,395.8,382.1,395.5,381.5,394.8z"/>
                                        <path d="M376.9,392c3.3,3.7,4.9,5.5,8.2,9.1c-0.6,0.6-0.9,0.8-1.6,1.4c-1.7-0.9-2.5-1.4-4.2-2.3c-1.2-0.7-2.5-1.5-3.7-2.4
                                            c0,0,0,0,0,0c1.1,1.2,2.3,2.4,3.5,3.8c0.9,1.1,1.4,1.6,2.3,2.7c-0.5,0.4-0.7,0.6-1.2,1.1c-3.2-3.7-4.8-5.6-8-9.4
                                            c0.5-0.5,0.8-0.7,1.4-1.2c1.7,1,2.6,1.5,4.3,2.5c1.2,0.7,2.6,1.5,3.9,2.4c0,0,0,0,0,0c-1.1-1.2-2.3-2.5-3.6-4
                                            c-1-1.1-1.5-1.7-2.5-2.8C376.2,392.6,376.4,392.4,376.9,392z"/>
                                        <path d="M369.7,398.2c3.9,3.2,5.8,4.7,9.8,7.8c-0.6,0.5-0.9,0.8-1.5,1.3c-1.6-1.4-2.4-2-4.1-3.4c-1.1-1-2.2-1.9-3.3-3
                                            c0,0,0,0,0,0c0.8,1.3,1.5,2.5,2.2,3.8c1,1.9,1.5,2.8,2.5,4.7c-0.6,0.5-0.9,0.7-1.5,1.2c-2.2-4.5-3.4-6.8-5.7-11.2
                                            C368.8,398.9,369.1,398.7,369.7,398.2z"/>
                                        <path d="M363.9,410.7c-2.4-3.2-2.7-6.1-0.9-7.4c1.8-1.4,4.5,0,6.7,2.7c2.3,2.9,2.8,6,1,7.4
                                            C368.7,414.9,365.9,413.4,363.9,410.7z M368.3,407.2c-1.5-1.9-3.1-2.8-4-2.1c-0.9,0.7-0.4,2.5,1.1,4.4c1.3,1.8,3,2.9,4,2.1
                                            C370.3,410.9,369.7,409.1,368.3,407.2z"/>
                                        <path d="M366.6,416.2c-0.6,0.4-0.9,0.6-1.5,1.1c-2.3-3.2-3.5-4.8-5.8-8.1c-1,0.7-1.5,1.1-2.5,1.8c-0.5-0.8-0.8-1.1-1.3-1.9
                                            c1.5-1.1,2.3-1.6,3.8-2.7C362.2,410.3,363.7,412.3,366.6,416.2z"/>
                                        <path d="M353.8,410.3c3.6,3.5,5.4,5.2,9.1,8.7c-0.6,0.5-1,0.7-1.6,1.1c-1.5-1.5-2.3-2.2-3.7-3.7c-1-1.1-2-2.1-3.1-3.2
                                            c0,0,0,0,0,0c0.7,1.3,1.3,2.7,1.9,4c0.9,2,1.3,2.9,2.1,4.9c-0.6,0.4-1,0.6-1.6,1.1c-1.8-4.7-2.8-7-4.7-11.7
                                            C352.8,410.9,353.1,410.7,353.8,410.3z"/>
                                        <path d="M348.4,420.1c1-0.6,1.4-0.9,2.4-1.5c-0.6-1-1-1.5-1.6-2.5c-1.1,0.7-1.6,1-2.6,1.7c-0.5-0.8-0.7-1.2-1.2-1.9
                                            c1.6-1,2.4-1.5,4-2.6c2.7,4.1,4.1,6.2,6.8,10.3c-1.6,1.1-2.5,1.6-4.1,2.7c-0.5-0.8-0.7-1.2-1.2-1.9c1-0.7,1.6-1,2.6-1.7
                                            c-0.6-0.9-0.8-1.3-1.4-2.1c-1,0.6-1.4,0.9-2.4,1.5C349.1,421.2,348.8,420.8,348.4,420.1z"/>
                                        <path d="M350.7,426.8c-0.4,0.4-1.1,1-1.9,1.5c-1,0.6-1.9,0.8-2.7,0.5c-0.7-0.3-1.4-0.9-1.9-1.8c-0.8-1.4-0.7-2.6-0.4-3.3
                                            c0,0,0,0,0,0c-0.6,0-1.3-0.6-2.1-1.5c-0.9-1.1-1.9-2.3-2.3-2.7c0.6-0.4,0.9-0.5,1.5-0.9c0.3,0.2,1,1,1.9,2.2
                                            c1,1.2,1.5,1.4,2.1,1c0.2-0.1,0.3-0.2,0.4-0.3c-1-1.7-1.5-2.5-2.5-4.1c0.6-0.4,0.9-0.5,1.4-0.9
                                            C346.9,420.6,348.2,422.6,350.7,426.8z M346.5,423.2c-0.2,0.1-0.4,0.2-0.6,0.4c-0.7,0.5-0.8,1.3-0.3,2.2c0.6,1,1.3,1.2,2,0.8
                                            c0.4-0.2,0.6-0.4,0.6-0.5C347.5,424.9,347.2,424.3,346.5,423.2z"/>
                                    </g>
                                </g>
                                <g>
                                    <g>
                                        <path d="M262.7,49.9c-0.3,0.9-0.5,1.4-0.8,2.4c-0.9-0.1-1.3-0.1-2.2-0.1c1.4-3.7,2.1-5.6,3.6-9.2c1.2,0.1,1.8,0.1,3,0.2
                                            c0.9,3.9,1.3,5.8,2.1,9.7c-0.9-0.1-1.4-0.1-2.3-0.2c-0.2-1-0.3-1.5-0.5-2.5C264.4,50.1,263.8,50,262.7,49.9z M265.3,48.5
                                            c-0.2-0.8-0.3-1.2-0.4-2c-0.1-0.6-0.2-1.3-0.3-1.9c0,0,0,0,0,0c-0.2,0.5-0.4,1.2-0.6,1.8c-0.3,0.8-0.4,1.2-0.7,2
                                            C264,48.4,264.4,48.5,265.3,48.5z"/>
                                        <path d="M270.9,53.2c-0.7-3.9-1.2-5.8-2-9.7c1,0.1,1.5,0.2,2.5,0.3c0.3,1.6,0.4,2.5,0.7,4.1c0.2,1.2,0.4,2.3,0.4,3.5
                                            c0,0,0,0,0,0c0.4-1.1,0.8-2.2,1.3-3.2c0.7-1.5,1.1-2.3,1.8-3.8c1,0.1,1.4,0.2,2.4,0.4c-1.9,3.5-2.8,5.3-4.6,8.9
                                            C272.4,53.4,271.9,53.3,270.9,53.2z"/>
                                        <path d="M279.4,52c-0.4,0.9-0.6,1.4-1.1,2.3c-0.9-0.1-1.3-0.2-2.2-0.4c1.7-3.6,2.6-5.3,4.4-8.8c1.2,0.2,1.8,0.3,2.9,0.5
                                            c0.5,3.9,0.8,5.9,1.1,9.8c-0.9-0.2-1.4-0.3-2.3-0.4c-0.1-1-0.2-1.5-0.3-2.5C281,52.2,280.5,52.1,279.4,52z M282.1,50.8
                                            c-0.1-0.8-0.1-1.2-0.2-2.1c-0.1-0.6-0.1-1.3-0.2-1.9c0,0,0,0,0,0c-0.2,0.5-0.5,1.2-0.8,1.7c-0.4,0.7-0.6,1.1-0.9,1.9
                                            C280.8,50.6,281.3,50.7,282.1,50.8z"/>
                                        <path d="M287.8,46.4c0.9,0.2,1.3,0.3,2.2,0.5c-0.7,3-1,4.5-1.7,7.5c1.5,0.3,2.2,0.5,3.7,0.9c-0.2,0.7-0.3,1-0.4,1.7
                                            c-2.3-0.6-3.4-0.8-5.8-1.3C286.7,52,287.1,50.1,287.8,46.4z"/>
                                        <path d="M297.4,48.7c-1,3.6-1.5,5.5-2.5,9.1c-0.8-0.2-1.2-0.3-2.1-0.5c0.9-3.7,1.4-5.5,2.3-9.1
                                            C296.1,48.4,296.5,48.5,297.4,48.7z"/>
                                        <path d="M299.5,56.6c-0.5,0.9-0.8,1.3-1.3,2.1c-0.9-0.2-1.3-0.4-2.1-0.6c2.1-3.3,3.2-5,5.5-8.3c1.1,0.3,1.7,0.5,2.8,0.9
                                            c0.1,4,0.1,6,0,9.9c-0.9-0.3-1.3-0.4-2.2-0.7c0-1,0-1.5,0-2.5C301.1,57.1,300.6,56.9,299.5,56.6z M302.3,55.8
                                            c0-0.8,0-1.3,0-2.1c0-0.6,0-1.3,0.1-1.9c0,0,0,0,0,0c-0.3,0.5-0.7,1.1-1,1.6c-0.5,0.7-0.7,1.1-1.1,1.8
                                            C301.1,55.4,301.5,55.6,302.3,55.8z"/>
                                        <path d="M308.5,52.3c0.7,0.1,1.8,0.4,2.9,0.8c1.4,0.5,2.3,1.1,2.8,1.8c0.4,0.6,0.5,1.4,0.1,2.2c-0.4,1.1-1.6,1.6-2.4,1.6
                                            c0,0,0,0,0,0c0.5,0.5,0.7,1.2,0.6,2.1c-0.1,1.1-0.3,2.4-0.2,2.8c-0.8-0.3-1.2-0.5-2.1-0.8c-0.1-0.3,0-1.1,0.1-2.3
                                            c0.1-1.2-0.1-1.6-1-2c-0.2-0.1-0.4-0.1-0.6-0.2c-0.5,1.4-0.7,2.1-1.2,3.5c-0.8-0.3-1.2-0.4-2-0.7
                                            C306.7,57.6,307.3,55.8,308.5,52.3z M309.3,56.8c0.3,0.1,0.5,0.2,0.8,0.3c1,0.4,1.8,0.1,2.1-0.7c0.3-0.8-0.1-1.4-1.1-1.8
                                            c-0.5-0.2-0.8-0.2-1-0.3C309.8,55.4,309.6,55.8,309.3,56.8z"/>
                                    </g>
                                </g>
                            </g>
                        </g>
                        <text transform="matrix(1 0 0 1 181.1985 241.1113)"><tspan x="0" y="0" font-family="'MyriadPro-Bold'" font-size="25px">Resiliência</tspan><tspan x="-3.8" y="34.8" font-family="'MyriadPro-Bold'" font-size="25px">de Negócio</tspan></text>
                    </g>
                </svg>