<svg id="graph" xmlns="http://www.w3.org/2000/svg" xmlns:xlink="http://www.w3.org/1999/xlink" viewBox="0 0 1145.67 582"><defs><linearGradient id="Gradiente_sem_nome_112" x1="298.61" y1="102.5" x2="1128.66" y2="102.5" gradientUnits="userSpaceOnUse"><stop offset="0.15" stop-color="#92278f"/><stop offset="0.17" stop-color="#af1d69"/><stop offset="0.19" stop-color="#c71449"/><stop offset="0.21" stop-color="#db0d2e"/><stop offset="0.24" stop-color="#eb071a"/><stop offset="0.27" stop-color="#f6030b"/><stop offset="0.3" stop-color="#fc0103"/><stop offset="0.36" stop-color="#fe0000"/><stop offset="0.36" stop-color="#fe1300"/><stop offset="0.37" stop-color="#fe4401"/><stop offset="0.39" stop-color="#fe7001"/><stop offset="0.41" stop-color="#ff9701"/><stop offset="0.42" stop-color="#ffb701"/><stop offset="0.44" stop-color="#ffd102"/><stop offset="0.46" stop-color="#ffe502"/><stop offset="0.48" stop-color="#fff302"/><stop offset="0.51" stop-color="#fffc02"/><stop offset="0.56" stop-color="#fffe02"/><stop offset="0.59" stop-color="#d0ef10"/><stop offset="0.65" stop-color="#86d827"/><stop offset="0.7" stop-color="#4fc738"/><stop offset="0.73" stop-color="#2ebd42"/><stop offset="0.75" stop-color="#21b946"/><stop offset="0.78" stop-color="#22b64b"/><stop offset="0.81" stop-color="#26af58"/><stop offset="0.83" stop-color="#2ca36e"/><stop offset="0.86" stop-color="#35928d"/><stop offset="0.89" stop-color="#407cb5"/><stop offset="0.91" stop-color="#4473c5"/></linearGradient><linearGradient id="Gradiente_sem_nome_112-2" x1="298.61" y1="101.09" x2="1128.66" y2="101.09" xlink:href="#Gradiente_sem_nome_112"/><linearGradient id="Gradiente_sem_nome_112-3" x1="298.61" y1="103.91" x2="1128.66" y2="103.91" xlink:href="#Gradiente_sem_nome_112"/><linearGradient id="Gradiente_sem_nome_112-4" x1="298.61" y1="144.5" x2="1128.66" y2="144.5" xlink:href="#Gradiente_sem_nome_112"/><linearGradient id="Gradiente_sem_nome_112-5" x1="298.61" y1="143.09" x2="1128.66" y2="143.09" xlink:href="#Gradiente_sem_nome_112"/><linearGradient id="Gradiente_sem_nome_112-6" x1="298.61" y1="145.91" x2="1128.66" y2="145.91" xlink:href="#Gradiente_sem_nome_112"/><linearGradient id="Gradiente_sem_nome_112-7" x1="298.61" y1="190.5" x2="1128.66" y2="190.5" xlink:href="#Gradiente_sem_nome_112"/><linearGradient id="Gradiente_sem_nome_112-8" x1="298.61" y1="189.09" x2="1128.66" y2="189.09" xlink:href="#Gradiente_sem_nome_112"/><linearGradient id="Gradiente_sem_nome_112-9" x1="298.61" y1="191.91" x2="1128.66" y2="191.91" xlink:href="#Gradiente_sem_nome_112"/><linearGradient id="Gradiente_sem_nome_112-10" x1="298.61" y1="237.5" x2="1128.66" y2="237.5" xlink:href="#Gradiente_sem_nome_112"/><linearGradient id="Gradiente_sem_nome_112-11" x1="298.61" y1="236.09" x2="1128.66" y2="236.09" xlink:href="#Gradiente_sem_nome_112"/><linearGradient id="Gradiente_sem_nome_112-12" x1="298.61" y1="238.91" x2="1128.66" y2="238.91" xlink:href="#Gradiente_sem_nome_112"/><linearGradient id="Gradiente_sem_nome_112-13" x1="297.61" y1="285.5" x2="1127.66" y2="285.5" xlink:href="#Gradiente_sem_nome_112"/><linearGradient id="Gradiente_sem_nome_112-14" x1="297.61" y1="284.09" x2="1127.66" y2="284.09" xlink:href="#Gradiente_sem_nome_112"/><linearGradient id="Gradiente_sem_nome_112-15" x1="297.61" y1="286.91" x2="1127.66" y2="286.91" xlink:href="#Gradiente_sem_nome_112"/><linearGradient id="Gradiente_sem_nome_112-16" x1="298.61" y1="555.5" x2="1128.66" y2="555.5" xlink:href="#Gradiente_sem_nome_112"/><linearGradient id="Gradiente_sem_nome_112-17" x1="298.61" y1="554.09" x2="1128.66" y2="554.09" xlink:href="#Gradiente_sem_nome_112"/><linearGradient id="Gradiente_sem_nome_112-18" x1="298.61" y1="556.91" x2="1128.66" y2="556.91" xlink:href="#Gradiente_sem_nome_112"/><linearGradient id="Gradiente_sem_nome_112-19" x1="298.61" y1="493.5" x2="1128.66" y2="493.5" xlink:href="#Gradiente_sem_nome_112"/><linearGradient id="Gradiente_sem_nome_112-20" x1="298.61" y1="492.09" x2="1128.66" y2="492.09" xlink:href="#Gradiente_sem_nome_112"/><linearGradient id="Gradiente_sem_nome_112-21" x1="298.61" y1="494.91" x2="1128.66" y2="494.91" xlink:href="#Gradiente_sem_nome_112"/><linearGradient id="Gradiente_sem_nome_112-22" x1="298.61" y1="333.5" x2="1128.66" y2="333.5" xlink:href="#Gradiente_sem_nome_112"/><linearGradient id="Gradiente_sem_nome_112-23" x1="298.61" y1="332.09" x2="1128.66" y2="332.09" xlink:href="#Gradiente_sem_nome_112"/><linearGradient id="Gradiente_sem_nome_112-24" x1="298.61" y1="334.91" x2="1128.66" y2="334.91" xlink:href="#Gradiente_sem_nome_112"/><linearGradient id="Gradiente_sem_nome_112-25" x1="297.61" y1="383.5" x2="1127.66" y2="383.5" xlink:href="#Gradiente_sem_nome_112"/><linearGradient id="Gradiente_sem_nome_112-26" x1="297.61" y1="382.09" x2="1127.66" y2="382.09" xlink:href="#Gradiente_sem_nome_112"/><linearGradient id="Gradiente_sem_nome_112-27" x1="297.61" y1="384.91" x2="1127.66" y2="384.91" xlink:href="#Gradiente_sem_nome_112"/><linearGradient id="Gradiente_sem_nome_112-28" x1="298.61" y1="438.5" x2="1128.66" y2="438.5" xlink:href="#Gradiente_sem_nome_112"/><linearGradient id="Gradiente_sem_nome_112-29" x1="298.61" y1="437.09" x2="1128.66" y2="437.09" xlink:href="#Gradiente_sem_nome_112"/><linearGradient id="Gradiente_sem_nome_112-30" x1="298.61" y1="439.91" x2="1128.66" y2="439.91" xlink:href="#Gradiente_sem_nome_112"/></defs><g id="retangulos"><rect x="18.14" y="10.59" width="1126.5" height="570.9" style="fill:#eae6e4"/><rect x="0.14" y="0.5" width="1145" height="81.77" style="fill:#262626"/><rect x="288.64" width="162" height="81.77" style="fill:#92278f"/><rect x="450.64" width="184" height="81.77" style="fill:#fe0000"/><rect x="634.64" width="175" height="81.77" style="fill:#fffe02"/><rect x="809.64" width="165" height="81.77" style="fill:#00af50"/><rect x="974.64" width="170" height="81.77" style="fill:#4473c5"/><rect x="0.14" y="82.28" width="288.5" height="499.72" style="fill:#404040"/></g><g id="linhas"><path d="M.79,123.06l1144,1Z" style="fill:#fff"/><path d="M1.64,81.7l1144,1Z" style="fill:#fff"/><path d="M1.64,167.44l1144,1Z" style="fill:#fff"/><path d="M1.57,211.82l1144,1Z" style="fill:#fff"/><path d="M0,261.24l1144,1Z" style="fill:#fff"/><path d="M1.14,310.67l1144,1Z" style="fill:#fff"/><path d="M1.14,355.05l1144,1Z" style="fill:#fff"/><path d="M1.14,410.53l1144,1Z" style="fill:#fff"/><path d="M1.41,465l1144,1Z" style="fill:#fff"/><path d="M1.41,520.47l1144,1Z" style="fill:#fff"/></g><g id="text"><text transform="translate(12.45 106.13) scale(0.99 1)" style="font-size:15.129983901977539px;fill:#dadada;font-family:Arial-Black, Arial Black;font-weight:800">G<tspan x="12.6" y="0" style="letter-spacing:-0.034179686444655966em">o</tspan><tspan x="22.18" y="0" style="letter-spacing:-0.0258789054509538em">v</tspan><tspan x="31.03" y="0">e</tspan><tspan x="41.12" y="0" style="letter-spacing:0.04980468596221297em">r</tspan><tspan x="48.59" y="0">nança</tspan></text><text transform="translate(11.87 150.51) scale(0.99 1)" style="font-size:15.129983901977539px;fill:#dadada;font-family:Arial-Black, Arial Black;font-weight:800">Business Ana<tspan x="111.81" y="0" style="letter-spacing:0.017089843222327983em">l</tspan><tspan x="117.1" y="0">ysis Impact</tspan></text><text transform="translate(12.88 195.79) scale(0.99 1)" style="font-size:15.129983901977539px;fill:#dadada;font-family:Arial-Black, Arial Black;font-weight:800">Risk Assessment</text><text transform="translate(12.88 245.22) scale(0.99 1)" style="font-size:15.129983901977539px;fill:#dadada;font-family:Arial-Black, Arial Black;font-weight:800">Contingen<tspan x="84.07" y="0" style="letter-spacing:-0.017089843222327983em">c</tspan><tspan x="93.9" y="0">y St</tspan><tspan x="125.83" y="0" style="letter-spacing:0.017089843222327983em">r</tspan><tspan x="132.81" y="0" style="letter-spacing:-0.017089843222327983em">a</tspan><tspan x="142.64" y="0">t</tspan><tspan x="149.36" y="0" style="letter-spacing:0.024902342981106485em">e</tspan><tspan x="159.83" y="0">gies</tspan></text><text transform="translate(12.88 293.63) scale(0.99 1)" style="font-size:15.129983901977539px;fill:#dadada;font-family:Arial-Black, Arial Black;font-weight:800">Eme<tspan x="36.15" y="0" style="letter-spacing:0.024902342981106485em">r</tspan><tspan x="43.24" y="0">gen</tspan><tspan x="73.51" y="0" style="letter-spacing:-0.017089843222327983em">c</tspan><tspan x="83.35" y="0">y </tspan><tspan x="97.64" y="0" style="letter-spacing:-0.024902342981106485em">R</tspan><tspan x="109.03" y="0">esponse Plan</tspan></text><text transform="translate(12.88 337) scale(0.99 1)" style="font-size:15.129983901977539px;fill:#dadada;font-family:Arial-Black, Arial Black;font-weight:800">Crisis Man<tspan x="86.55" y="0" style="letter-spacing:0.016113280752480665em">a</tspan><tspan x="96.89" y="0">gement Plan </tspan></text><text transform="translate(12.88 388.45) scale(0.99 1)" style="font-size:15.129983901977539px;fill:#dadada;font-family:Arial-Black, Arial Black;font-weight:800">Business Continuity Plan</text><text transform="translate(12.9 443.92) scale(0.99 1)" style="font-size:15.129983901977539px;fill:#dadada;font-family:Arial-Black, Arial Black;font-weight:800">Disaster <tspan x="73.95" y="0" style="letter-spacing:-0.024902342981106485em">R</tspan><tspan x="85.34" y="0">ec</tspan><tspan x="105.53" y="0" style="letter-spacing:-0.034179686444655966em">o</tspan><tspan x="115.1" y="0" style="letter-spacing:-0.0258789054509538em">v</tspan><tspan x="123.95" y="0">e</tspan><tspan x="134.04" y="0" style="letter-spacing:0.05810546695591513em">r</tspan><tspan x="141.64" y="0">y Plan</tspan></text><text transform="translate(12.9 499.4) scale(0.99 1)" style="font-size:15.129983901977539px;fill:#dadada;font-family:Arial-Black, Arial Black;font-weight:800"><tspan style="letter-spacing:-0.06005859189560976em">T</tspan><tspan x="10.02" y="0">esting &amp; </tspan><tspan x="84.83" y="0" style="letter-spacing:-0.042968748673281786em">T</tspan><tspan x="95.11" y="0" style="letter-spacing:0.017089843222327983em">r</tspan><tspan x="102.08" y="0">aining</tspan></text><text transform="translate(12.9 555.88) scale(0.99 1)" style="font-size:15.129983901977539px;fill:#dadada;font-family:Arial-Black, Arial Black;font-weight:800">P<tspan x="10.93" y="0" style="letter-spacing:0.016113280752480665em">r</tspan><tspan x="17.89" y="0">o</tspan><tspan x="27.98" y="0" style="letter-spacing:0.018066405692175293em">g</tspan><tspan x="38.34" y="0" style="letter-spacing:0.017089843222327983em">r</tspan><tspan x="45.32" y="0">am Maintenance &amp; </tspan><tspan x="205.89" y="0" style="letter-spacing:-0.009765624698473132em">A</tspan><tspan x="217.52" y="0">udit</tspan></text><text transform="translate(80.9 48.53) scale(0.99 1)" style="font-size:22.190643310546875px;fill:#dadada;font-family:Arial-Black, Arial Black;font-weight:800">Diciplinas</text><text transform="translate(312.9 48.53) scale(0.99 1)" style="font-size:15.129983901977539px;fill:#dadada;font-family:Arial-Black, Arial Black;font-weight:800">1. In<tspan x="36.16" y="0" style="letter-spacing:-0.0258789054509538em">e</tspan><tspan x="45.86" y="0">xistente</tspan></text><text transform="translate(476.5 48.53) scale(0.99 1)" style="font-size:15.129983901977539px;fill:#dadada;font-family:Arial-Black, Arial Black;font-weight:800">2. Não Ade<tspan x="89.96" y="0" style="letter-spacing:0.016113280752480665em">r</tspan><tspan x="96.92" y="0">ente</tspan></text><path d="M660.11,32.76l-2.82-.51a3.51,3.51,0,0,1,1.35-2.08,6,6,0,0,1,5.87.06,2.49,2.49,0,0,1,.94,2,2.26,2.26,0,0,1-.38,1.27,3.37,3.37,0,0,1-1.15,1,3.26,3.26,0,0,1,1,.36,2.27,2.27,0,0,1,.83.88A2.62,2.62,0,0,1,666,37a3.74,3.74,0,0,1-.49,1.82,3.32,3.32,0,0,1-1.42,1.33,5.24,5.24,0,0,1-2.42.47,6,6,0,0,1-2.31-.35,3.41,3.41,0,0,1-1.39-1,4.57,4.57,0,0,1-.84-1.68l3-.4a2.47,2.47,0,0,0,.54,1.26,1.34,1.34,0,0,0,1,.35,1.31,1.31,0,0,0,1-.44,1.74,1.74,0,0,0,.39-1.19,1.61,1.61,0,0,0-.38-1.16,1.34,1.34,0,0,0-1-.42,3.67,3.67,0,0,0-1,.18l.15-2.15a2.31,2.31,0,0,0,.39,0,1.37,1.37,0,0,0,1-.38,1.2,1.2,0,0,0,.39-.89,1.08,1.08,0,0,0-.29-.79,1.09,1.09,0,0,0-.81-.3,1.18,1.18,0,0,0-.85.32A2,2,0,0,0,660.11,32.76Z" style="fill:#dadada"/><path d="M667.51,37.44h3.19v3h-3.19Z" style="fill:#dadada"/><path d="M677.69,29.63h5.51a3.79,3.79,0,0,1,2.7.86,3.26,3.26,0,0,1,.9,2.46,3.35,3.35,0,0,1-1,2.56,4.19,4.19,0,0,1-3,.93H681v4h-3.33ZM681,34.24h.81a2.12,2.12,0,0,0,1.35-.33,1.09,1.09,0,0,0,.39-.86,1.21,1.21,0,0,0-.34-.87,1.77,1.77,0,0,0-1.27-.35H681Z" style="fill:#dadada"/><path d="M690.8,35.15l-2.85-.3a3.4,3.4,0,0,1,.46-1.19,2.88,2.88,0,0,1,.88-.75,3.59,3.59,0,0,1,1.13-.35,9.25,9.25,0,0,1,1.55-.13,11.29,11.29,0,0,1,2.15.16,2.77,2.77,0,0,1,1.36.63,2.25,2.25,0,0,1,.6.94,3.59,3.59,0,0,1,.22,1.16v3.47a4,4,0,0,0,.07.87,3.59,3.59,0,0,0,.3.8h-2.8a4.2,4.2,0,0,1-.22-.46c0-.11-.06-.28-.1-.5a3.83,3.83,0,0,1-1.16.81,4.76,4.76,0,0,1-1.84.32,3.06,3.06,0,0,1-2.12-.65,2.06,2.06,0,0,1-.72-1.6,2.15,2.15,0,0,1,.52-1.47,3.58,3.58,0,0,1,1.92-.86c1.12-.22,1.85-.38,2.18-.47a9.37,9.37,0,0,0,1-.36,1.09,1.09,0,0,0-.22-.78,1.2,1.2,0,0,0-.8-.22,2,2,0,0,0-1.1.24A1.23,1.23,0,0,0,690.8,35.15Zm2.58,1.58a12,12,0,0,1-1.28.39,3,3,0,0,0-1.15.49.76.76,0,0,0,0,1.13,1,1,0,0,0,.72.22,1.83,1.83,0,0,0,.92-.24,1.45,1.45,0,0,0,.61-.59,2,2,0,0,0,.18-.92Z" style="fill:#dadada"/><path d="M698.11,32.61h2.79V33.9a3,3,0,0,1,.84-1.15,1.7,1.7,0,0,1,1-.32,3.14,3.14,0,0,1,1.45.42L703.31,35a2.27,2.27,0,0,0-.83-.22,1,1,0,0,0-.91.49,4.93,4.93,0,0,0-.46,2.57v2.63h-3Z" style="fill:#dadada"/><path d="M710.8,37.38l2.83.33a4,4,0,0,1-.77,1.55,3.57,3.57,0,0,1-1.36,1,5.37,5.37,0,0,1-2.11.36,7.58,7.58,0,0,1-2.07-.23,3.42,3.42,0,0,1-1.41-.75,3.67,3.67,0,0,1-.93-1.22,4.26,4.26,0,0,1-.34-1.86,4.48,4.48,0,0,1,.41-2,3.87,3.87,0,0,1,1.89-1.75,5.71,5.71,0,0,1,2.23-.37,5.13,5.13,0,0,1,2.91.69,3.67,3.67,0,0,1,1.4,2l-2.8.38a1.32,1.32,0,0,0-.48-.76,1.58,1.58,0,0,0-.94-.25,1.5,1.5,0,0,0-1.2.53,2.48,2.48,0,0,0-.45,1.62,2.15,2.15,0,0,0,.45,1.47,1.64,1.64,0,0,0,2.14.19A1.76,1.76,0,0,0,710.8,37.38Z" style="fill:#dadada"/><path d="M715.11,29.63h3v2h-3Zm0,3h3v7.85h-3Z" style="fill:#dadada"/><path d="M722.72,35.15l-2.85-.3a3.21,3.21,0,0,1,.46-1.19,2.76,2.76,0,0,1,.88-.75,3.59,3.59,0,0,1,1.13-.35,9.25,9.25,0,0,1,1.55-.13,11.29,11.29,0,0,1,2.15.16,2.81,2.81,0,0,1,1.36.63,2.25,2.25,0,0,1,.6.94,3.59,3.59,0,0,1,.22,1.16v3.47a4,4,0,0,0,.07.87,3.59,3.59,0,0,0,.3.8h-2.8a4.2,4.2,0,0,1-.22-.46,3.92,3.92,0,0,1-.1-.5,3.83,3.83,0,0,1-1.16.81,4.76,4.76,0,0,1-1.84.32,3,3,0,0,1-2.12-.65,2.06,2.06,0,0,1-.72-1.6,2.15,2.15,0,0,1,.52-1.47,3.58,3.58,0,0,1,1.92-.86c1.12-.22,1.84-.38,2.18-.47a9.37,9.37,0,0,0,1-.36,1,1,0,0,0-.23-.78,1.15,1.15,0,0,0-.79-.22,2,2,0,0,0-1.1.24A1.23,1.23,0,0,0,722.72,35.15Zm2.58,1.58a12.7,12.7,0,0,1-1.28.39,3,3,0,0,0-1.15.49.76.76,0,0,0,0,1.13,1,1,0,0,0,.72.22,1.83,1.83,0,0,0,.92-.24,1.45,1.45,0,0,0,.61-.59,2,2,0,0,0,.18-.92Z" style="fill:#dadada"/><path d="M730.11,29.63h3V40.46h-3Z" style="fill:#dadada"/><path d="M735,32.61h2.78v1.15a3.94,3.94,0,0,1,1.22-1,3.34,3.34,0,0,1,1.48-.31,2.71,2.71,0,0,1,1.47.34,2.46,2.46,0,0,1,.89,1,4.44,4.44,0,0,1,1.28-1,3.32,3.32,0,0,1,1.42-.28,2.55,2.55,0,0,1,2,.75,3.35,3.35,0,0,1,.7,2.35v4.93h-3V36a1.29,1.29,0,0,0-.2-.79.91.91,0,0,0-.75-.41,1,1,0,0,0-.84.38,1.9,1.9,0,0,0-.33,1.24v4.05h-3V36.14a2.76,2.76,0,0,0-.06-.71,1.06,1.06,0,0,0-.33-.47.89.89,0,0,0-.55-.18,1.06,1.06,0,0,0-.85.39,2,2,0,0,0-.33,1.28v4h-3Z" style="fill:#dadada"/><path d="M758.63,37.28h-6a1.92,1.92,0,0,0,.39,1.08,1.39,1.39,0,0,0,1.12.51,1.78,1.78,0,0,0,.84-.22,2.15,2.15,0,0,0,.52-.5l2.94.28a4.29,4.29,0,0,1-1.63,1.69,5.92,5.92,0,0,1-2.73.51,5.44,5.44,0,0,1-2.43-.44,3.55,3.55,0,0,1-1.47-1.39,4.24,4.24,0,0,1-.58-2.25,4,4,0,0,1,1.16-3A4.44,4.44,0,0,1,754,32.43a5.74,5.74,0,0,1,2.64.51,3.5,3.5,0,0,1,1.47,1.48,5.43,5.43,0,0,1,.5,2.52Zm-3-1.44a2,2,0,0,0-.46-1.25,1.45,1.45,0,0,0-2.13.19,2.13,2.13,0,0,0-.35,1.06Z" style="fill:#dadada"/><path d="M760,32.61h2.78v1.28A4,4,0,0,1,764,32.77a3.32,3.32,0,0,1,1.55-.34,2.52,2.52,0,0,1,1.94.75,3.27,3.27,0,0,1,.7,2.29v5h-3V36.14a1.56,1.56,0,0,0-.27-1,.94.94,0,0,0-.76-.31,1.1,1.1,0,0,0-.88.41,2.49,2.49,0,0,0-.34,1.49v3.77h-3Z" style="fill:#dadada"/><path d="M773.61,29.63v3h1.64v2.2h-1.64v2.78a1.61,1.61,0,0,0,.09.67.56.56,0,0,0,.51.25,3.31,3.31,0,0,0,.93-.2l.22,2.08a9.83,9.83,0,0,1-2.07.24,3.61,3.61,0,0,1-1.64-.28,1.82,1.82,0,0,1-.78-.88,5.14,5.14,0,0,1-.25-1.9V34.81h-1.1v-2.2h1.1V31.17Z" style="fill:#dadada"/><path d="M785.3,37.28h-6a2.07,2.07,0,0,0,.39,1.08,1.42,1.42,0,0,0,1.13.51,1.81,1.81,0,0,0,.84-.22,2.15,2.15,0,0,0,.52-.5l2.93.28a4.27,4.27,0,0,1-1.62,1.69,5.92,5.92,0,0,1-2.73.51,5.46,5.46,0,0,1-2.44-.44,3.55,3.55,0,0,1-1.47-1.39,4.33,4.33,0,0,1-.58-2.25,4,4,0,0,1,1.17-3,4.44,4.44,0,0,1,3.23-1.14,5.66,5.66,0,0,1,2.63.51,3.47,3.47,0,0,1,1.48,1.48,5.56,5.56,0,0,1,.5,2.52Zm-3-1.44a2,2,0,0,0-.47-1.25,1.44,1.44,0,0,0-2.12.19,2.13,2.13,0,0,0-.35,1.06Z" style="fill:#dadada"/><path d="M694.31,56.83h-3.76L690,58.61h-3.38l4-10.83h3.62l4,10.83h-3.48Zm-.68-2.35-1.19-3.89-1.17,3.89Z" style="fill:#dadada"/><path d="M707.37,47.78V58.61h-2.79V57.45a3.66,3.66,0,0,1-1.07,1,3,3,0,0,1-1.43.34,2.78,2.78,0,0,1-2.43-1.22,5.08,5.08,0,0,1-.84-3,4.34,4.34,0,0,1,.93-3,3,3,0,0,1,2.35-1,3.18,3.18,0,0,1,1.26.24,2.7,2.7,0,0,1,1,.71V47.78Zm-3,6.89a2.12,2.12,0,0,0-.38-1.38,1.25,1.25,0,0,0-1-.45,1.09,1.09,0,0,0-.87.43,2.39,2.39,0,0,0-.35,1.46,2.25,2.25,0,0,0,.36,1.41,1.11,1.11,0,0,0,.9.45,1.19,1.19,0,0,0,1-.45A2.23,2.23,0,0,0,704.38,54.67Z" style="fill:#dadada"/><path d="M717.82,55.44h-6a1.85,1.85,0,0,0,.39,1.07,1.39,1.39,0,0,0,1.12.51,1.67,1.67,0,0,0,.84-.22,2.08,2.08,0,0,0,.52-.49l2.93.27a4.24,4.24,0,0,1-1.62,1.7,5.92,5.92,0,0,1-2.73.51,5.58,5.58,0,0,1-2.43-.44A3.52,3.52,0,0,1,709.4,57a4.19,4.19,0,0,1-.59-2.25,4,4,0,0,1,1.17-3,4.44,4.44,0,0,1,3.23-1.14,5.74,5.74,0,0,1,2.64.51,3.44,3.44,0,0,1,1.47,1.48,5.51,5.51,0,0,1,.5,2.52Zm-3-1.44a2,2,0,0,0-.46-1.25,1.38,1.38,0,0,0-1-.38,1.34,1.34,0,0,0-1.13.57,2.13,2.13,0,0,0-.35,1.06Z" style="fill:#dadada"/><path d="M719.22,50.77H722v1.28a3.21,3.21,0,0,1,.83-1.15,1.75,1.75,0,0,1,1.06-.31,3.24,3.24,0,0,1,1.45.41l-.93,2.15a2.33,2.33,0,0,0-.83-.23,1,1,0,0,0-.91.49,5,5,0,0,0-.46,2.57v2.63h-3Z" style="fill:#dadada"/><path d="M734.73,55.44h-6a1.92,1.92,0,0,0,.39,1.07,1.41,1.41,0,0,0,1.13.51,1.64,1.64,0,0,0,.83-.22,1.92,1.92,0,0,0,.52-.49l2.94.27a4.26,4.26,0,0,1-1.63,1.7,5.87,5.87,0,0,1-2.73.51,5.58,5.58,0,0,1-2.43-.44A3.58,3.58,0,0,1,726.3,57a4.19,4.19,0,0,1-.58-2.25,4,4,0,0,1,1.17-3,4.41,4.41,0,0,1,3.22-1.14,5.68,5.68,0,0,1,2.64.51,3.34,3.34,0,0,1,1.47,1.48,5.37,5.37,0,0,1,.51,2.52Zm-3-1.44a2,2,0,0,0-.47-1.25,1.45,1.45,0,0,0-2.13.19,2.14,2.14,0,0,0-.34,1.06Z" style="fill:#dadada"/><path d="M736.1,50.77h2.77V52a4.19,4.19,0,0,1,1.26-1.11,3.24,3.24,0,0,1,1.56-.34,2.53,2.53,0,0,1,1.93.74,3.25,3.25,0,0,1,.7,2.3v5h-3V54.3a1.61,1.61,0,0,0-.27-1,1,1,0,0,0-.77-.3,1.08,1.08,0,0,0-.88.41,2.48,2.48,0,0,0-.33,1.49v3.76h-3Z" style="fill:#dadada"/><path d="M749.7,47.78v3h1.64V53H749.7v2.78a1.58,1.58,0,0,0,.09.66.55.55,0,0,0,.52.25,3.17,3.17,0,0,0,.92-.19l.22,2.08a9.83,9.83,0,0,1-2.07.24,3.59,3.59,0,0,1-1.64-.29,1.75,1.75,0,0,1-.78-.87,5.17,5.17,0,0,1-.25-1.9V53h-1.1v-2.2h1.1V49.33Z" style="fill:#dadada"/><path d="M761.4,55.44h-6a1.85,1.85,0,0,0,.39,1.07,1.39,1.39,0,0,0,1.13.51,1.64,1.64,0,0,0,.83-.22,2.08,2.08,0,0,0,.52-.49l2.94.27a4.26,4.26,0,0,1-1.63,1.7,5.87,5.87,0,0,1-2.73.51,5.58,5.58,0,0,1-2.43-.44A3.58,3.58,0,0,1,753,57a4.19,4.19,0,0,1-.58-2.25,4,4,0,0,1,1.16-3,4.44,4.44,0,0,1,3.23-1.14,5.74,5.74,0,0,1,2.64.51,3.44,3.44,0,0,1,1.47,1.48,5.37,5.37,0,0,1,.51,2.52Zm-3-1.44a2,2,0,0,0-.46-1.25,1.45,1.45,0,0,0-2.13.19,2,2,0,0,0-.34,1.06Z" style="fill:#dadada"/><text transform="translate(846.6 48.53) scale(0.99 1)" style="font-size:15.129983901977539px;fill:#dadada;font-family:Arial-Black, Arial Black;font-weight:800">4. Ade<tspan x="52.13" y="0" style="letter-spacing:0.016080728670152426em">r</tspan><tspan x="59.09" y="0">ente</tspan></text><text transform="translate(1006.35 37.43) scale(0.99 1)" style="font-size:15.129983901977539px;fill:#dadada;font-family:Arial-Black, Arial Black;font-weight:800">5. <tspan x="20.18" y="0" style="letter-spacing:-0.06783853957206003em">T</tspan><tspan x="30.07" y="0" style="letter-spacing:0.00006510416465648753em">otalmente</tspan><tspan x="0" y="18.16" xml:space="preserve">     Ade</tspan><tspan x="57.18" y="18.16" style="letter-spacing:0.016080728670152426em">r</tspan><tspan x="64.14" y="18.16">ente</tspan></text></g><g id="setas"><line x1="298.64" y1="101" x2="1128.64" y2="104" style="fill:#006f8b"/><line x1="318.73" y1="101.07" x2="1108.55" y2="103.93" style="fill:none;stroke-miterlimit:10;stroke-width:14px;stroke:url(#Gradiente_sem_nome_112)"/><polygon points="322.76 115.05 298.64 101 322.87 87.13 322.76 115.05" style="fill:url(#Gradiente_sem_nome_112-2)"/><polygon points="1104.41 117.87 1128.64 104 1104.51 89.95 1104.41 117.87" style="fill:url(#Gradiente_sem_nome_112-3)"/><line x1="298.64" y1="143" x2="1128.64" y2="146" style="fill:#006f8b"/><line x1="318.73" y1="143.07" x2="1108.55" y2="145.93" style="fill:none;stroke-miterlimit:10;stroke-width:14px;stroke:url(#Gradiente_sem_nome_112-4)"/><polygon points="322.76 157.05 298.64 143 322.87 129.13 322.76 157.05" style="fill:url(#Gradiente_sem_nome_112-5)"/><polygon points="1104.41 159.87 1128.64 146 1104.51 131.95 1104.41 159.87" style="fill:url(#Gradiente_sem_nome_112-6)"/><line x1="298.64" y1="189" x2="1128.64" y2="192" style="fill:#006f8b"/><line x1="318.73" y1="189.07" x2="1108.55" y2="191.93" style="fill:none;stroke-miterlimit:10;stroke-width:14px;stroke:url(#Gradiente_sem_nome_112-7)"/><polygon points="322.76 203.05 298.64 189 322.87 175.13 322.76 203.05" style="fill:url(#Gradiente_sem_nome_112-8)"/><polygon points="1104.41 205.87 1128.64 192 1104.51 177.95 1104.41 205.87" style="fill:url(#Gradiente_sem_nome_112-9)"/><line x1="298.64" y1="236" x2="1128.64" y2="239" style="fill:#006f8b"/><line x1="318.73" y1="236.07" x2="1108.55" y2="238.93" style="fill:none;stroke-miterlimit:10;stroke-width:14px;stroke:url(#Gradiente_sem_nome_112-10)"/><polygon points="322.76 250.05 298.64 236 322.87 222.13 322.76 250.05" style="fill:url(#Gradiente_sem_nome_112-11)"/><polygon points="1104.41 252.87 1128.64 239 1104.51 224.95 1104.41 252.87" style="fill:url(#Gradiente_sem_nome_112-12)"/><line x1="297.64" y1="284" x2="1127.64" y2="287" style="fill:#006f8b"/><line x1="317.73" y1="284.07" x2="1107.55" y2="286.93" style="fill:none;stroke-miterlimit:10;stroke-width:14px;stroke:url(#Gradiente_sem_nome_112-13)"/><polygon points="321.76 298.05 297.64 284 321.87 270.13 321.76 298.05" style="fill:url(#Gradiente_sem_nome_112-14)"/><polygon points="1103.41 300.87 1127.64 287 1103.51 272.95 1103.41 300.87" style="fill:url(#Gradiente_sem_nome_112-15)"/><line x1="298.64" y1="554" x2="1128.64" y2="557" style="fill:#006f8b"/><line x1="318.73" y1="554.07" x2="1108.55" y2="556.93" style="fill:none;stroke-miterlimit:10;stroke-width:14px;stroke:url(#Gradiente_sem_nome_112-16)"/><polygon points="322.76 568.05 298.64 554 322.87 540.13 322.76 568.05" style="fill:url(#Gradiente_sem_nome_112-17)"/><polygon points="1104.41 570.87 1128.64 557 1104.51 542.95 1104.41 570.87" style="fill:url(#Gradiente_sem_nome_112-18)"/><line x1="298.64" y1="492" x2="1128.64" y2="495" style="fill:#006f8b"/><line x1="318.73" y1="492.07" x2="1108.55" y2="494.93" style="fill:none;stroke-miterlimit:10;stroke-width:14px;stroke:url(#Gradiente_sem_nome_112-19)"/><polygon points="322.76 506.05 298.64 492 322.87 478.13 322.76 506.05" style="fill:url(#Gradiente_sem_nome_112-20)"/><polygon points="1104.41 508.87 1128.64 495 1104.51 480.95 1104.41 508.87" style="fill:url(#Gradiente_sem_nome_112-21)"/><line x1="298.64" y1="332" x2="1128.64" y2="335" style="fill:#006f8b"/><line x1="318.73" y1="332.07" x2="1108.55" y2="334.93" style="fill:none;stroke-miterlimit:10;stroke-width:14px;stroke:url(#Gradiente_sem_nome_112-22)"/><polygon points="322.76 346.05 298.64 332 322.87 318.13 322.76 346.05" style="fill:url(#Gradiente_sem_nome_112-23)"/><polygon points="1104.41 348.87 1128.64 335 1104.51 320.95 1104.41 348.87" style="fill:url(#Gradiente_sem_nome_112-24)"/><line x1="297.64" y1="382" x2="1127.64" y2="385" style="fill:#006f8b"/><line x1="317.73" y1="382.07" x2="1107.55" y2="384.93" style="fill:none;stroke-miterlimit:10;stroke-width:14px;stroke:url(#Gradiente_sem_nome_112-25)"/><polygon points="321.76 396.05 297.64 382 321.87 368.13 321.76 396.05" style="fill:url(#Gradiente_sem_nome_112-26)"/><polygon points="1103.41 398.87 1127.64 385 1103.51 370.95 1103.41 398.87" style="fill:url(#Gradiente_sem_nome_112-27)"/><line x1="298.64" y1="437" x2="1128.64" y2="440" style="fill:#006f8b"/><line x1="318.73" y1="437.07" x2="1108.55" y2="439.93" style="fill:none;stroke-miterlimit:10;stroke-width:14px;stroke:url(#Gradiente_sem_nome_112-28)"/><polygon points="322.76 451.05 298.64 437 322.87 423.13 322.76 451.05" style="fill:url(#Gradiente_sem_nome_112-29)"/><polygon points="1104.41 453.87 1128.64 440 1104.51 425.95 1104.41 453.87" style="fill:url(#Gradiente_sem_nome_112-30)"/></g><g id="marks5"><circle cx="1064.64" cy="103" r="15" style="fill:#404040"/><circle cx="1037.64" cy="147" r="15" style="fill:#404040"/><circle cx="1079.64" cy="192" r="15" style="fill:#404040"/><circle cx="1052.64" cy="237" r="15" style="fill:#404040"/><circle cx="1079.64" cy="288" r="15" style="fill:#404040"/><circle cx="1037.64" cy="334" r="15" style="fill:#404040"/><circle cx="1064.64" cy="384" r="15" style="fill:#404040"/><circle cx="1037.64" cy="440" r="15" style="fill:#404040"/><circle cx="1057.64" cy="495" r="15" style="fill:#404040"/><circle cx="1058.64" cy="557" r="15" style="fill:#404040"/></g><g id="marks4"><circle cx="897.64" cy="103" r="15" style="fill:#404040"/><circle cx="870.64" cy="147" r="15" style="fill:#404040"/><circle cx="912.64" cy="192" r="15" style="fill:#404040"/><circle cx="885.64" cy="237" r="15" style="fill:#404040"/><circle cx="912.64" cy="288" r="15" style="fill:#404040"/><circle cx="870.64" cy="334" r="15" style="fill:#404040"/><circle cx="897.64" cy="384" r="15" style="fill:#404040"/><circle cx="870.64" cy="440" r="15" style="fill:#404040"/><circle cx="890.64" cy="495" r="15" style="fill:#404040"/><circle cx="891.64" cy="557" r="15" style="fill:#404040"/></g><g id="marks3"><circle cx="728.64" cy="99" r="15" style="fill:#404040"/><circle cx="701.64" cy="143" r="15" style="fill:#404040"/><circle cx="743.64" cy="188" r="15" style="fill:#404040"/><circle cx="716.64" cy="233" r="15" style="fill:#404040"/><circle cx="743.64" cy="284" r="15" style="fill:#404040"/><circle cx="701.64" cy="330" r="15" style="fill:#404040"/><circle cx="728.64" cy="380" r="15" style="fill:#404040"/><circle cx="701.64" cy="436" r="15" style="fill:#404040"/><circle cx="721.64" cy="491" r="15" style="fill:#404040"/><circle cx="722.64" cy="553" r="15" style="fill:#404040"/></g><g id="marks2"><circle cx="543.64" cy="99" r="15" style="fill:#404040"/><circle cx="516.64" cy="143" r="15" style="fill:#404040"/><circle cx="558.64" cy="188" r="15" style="fill:#404040"/><circle cx="531.64" cy="233" r="15" style="fill:#404040"/><circle cx="558.64" cy="284" r="15" style="fill:#404040"/><circle cx="516.64" cy="330" r="15" style="fill:#404040"/><circle cx="543.64" cy="380" r="15" style="fill:#404040"/><circle cx="516.64" cy="436" r="15" style="fill:#404040"/><circle cx="536.64" cy="491" r="15" style="fill:#404040"/><circle cx="537.64" cy="553" r="15" style="fill:#404040"/></g><g id="marks1"><circle cx="391.14" cy="101.5" r="15" style="fill:#404040"/><circle cx="364.14" cy="145.5" r="15" style="fill:#404040"/><circle cx="406.14" cy="190.5" r="15" style="fill:#404040"/><circle cx="379.14" cy="235.5" r="15" style="fill:#404040"/><circle cx="406.14" cy="286.5" r="15" style="fill:#404040"/><circle cx="364.14" cy="332.5" r="15" style="fill:#404040"/><circle cx="391.14" cy="382.5" r="15" style="fill:#404040"/><circle cx="364.14" cy="438.5" r="15" style="fill:#404040"/><circle cx="384.14" cy="493.5" r="15" style="fill:#404040"/><circle cx="385.14" cy="555.5" r="15" style="fill:#404040"/></g></svg>